<?xml version="1.0" encoding="utf-8" standalone="no"?>
<!DOCTYPE svg PUBLIC "-//W3C//DTD SVG 1.1//EN"
  "http://www.w3.org/Graphics/SVG/1.1/DTD/svg11.dtd">
<svg xmlns:xlink="http://www.w3.org/1999/xlink" width="460.8pt" height="345.6pt" viewBox="0 0 460.8 345.6" xmlns="http://www.w3.org/2000/svg" version="1.1">
 <metadata>
  <rdf:RDF xmlns:dc="http://purl.org/dc/elements/1.1/" xmlns:cc="http://creativecommons.org/ns#" xmlns:rdf="http://www.w3.org/1999/02/22-rdf-syntax-ns#">
   <cc:Work>
    <dc:type rdf:resource="http://purl.org/dc/dcmitype/StillImage"/>
    <dc:date>2022-11-11T14:47:54.261066</dc:date>
    <dc:format>image/svg+xml</dc:format>
    <dc:creator>
     <cc:Agent>
      <dc:title>Matplotlib v3.5.3, https://matplotlib.org/</dc:title>
     </cc:Agent>
    </dc:creator>
   </cc:Work>
  </rdf:RDF>
 </metadata>
 <defs>
  <style type="text/css">*{stroke-linejoin: round; stroke-linecap: butt}</style>
 </defs>
 <g id="figure_1">
  <g id="patch_1">
   <path d="M 0 345.6 
L 460.8 345.6 
L 460.8 0 
L 0 0 
z
" style="fill: #ffffff"/>
  </g>
  <g id="axes_1">
   <g id="line2d_1">
    <path d="M 294.071201 59.273491 
L 73.832727 53.568 
" clip-path="url(#p486bfd9c74)" style="fill: none; stroke: #000000; stroke-opacity: 0.5; stroke-width: 2.074534; stroke-linecap: square"/>
   </g>
   <g id="line2d_2">
    <path d="M 294.071201 59.273491 
L 120.932788 287.340931 
" clip-path="url(#p486bfd9c74)" style="fill: none; stroke: #000000; stroke-opacity: 0.5; stroke-width: 0.509724; stroke-linecap: square"/>
   </g>
   <g id="line2d_3">
    <path d="M 398.487273 163.915019 
L 310.985145 278.740701 
" clip-path="url(#p486bfd9c74)" style="fill: none; stroke: #000000; stroke-opacity: 0.5; stroke-width: 4.319353; stroke-linecap: square"/>
   </g>
   <g id="line2d_4">
    <path d="M 230.238748 295.488 
L 310.985145 278.740701 
" clip-path="url(#p486bfd9c74)" style="fill: none; stroke: #000000; stroke-opacity: 0.5; stroke-width: 1.779751; stroke-linecap: square"/>
   </g>
   <g id="line2d_5">
    <path d="M 230.238748 295.488 
L 120.932788 287.340931 
" clip-path="url(#p486bfd9c74)" style="fill: none; stroke: #000000; stroke-opacity: 0.5; stroke-width: 7.926652; stroke-linecap: square"/>
   </g>
   <g id="line2d_6">
    <path d="M 201.630883 84.400763 
L 73.832727 53.568 
" clip-path="url(#p486bfd9c74)" style="fill: none; stroke: #000000; stroke-opacity: 0.5; stroke-width: 7.758285; stroke-linecap: square"/>
   </g>
   <g id="line2d_7">
    <path d="M 201.630883 84.400763 
L 120.932788 287.340931 
" clip-path="url(#p486bfd9c74)" style="fill: none; stroke: #000000; stroke-opacity: 0.5; stroke-width: 0.932157; stroke-linecap: square"/>
   </g>
   <g id="line2d_8">
    <path d="M 360.256142 131.393876 
L 310.985145 278.740701 
" clip-path="url(#p486bfd9c74)" style="fill: none; stroke: #000000; stroke-opacity: 0.5; stroke-width: 3.38599; stroke-linecap: square"/>
   </g>
   <g id="PathCollection_1">
    <path d="M 294.071201 66.344559 
C 295.94647 66.344559 297.745186 65.599506 299.071201 64.273491 
C 300.397217 62.947475 301.142269 61.14876 301.142269 59.273491 
C 301.142269 57.398222 300.397217 55.599506 299.071201 54.273491 
C 297.745186 52.947475 295.94647 52.202423 294.071201 52.202423 
C 292.195932 52.202423 290.397217 52.947475 289.071201 54.273491 
C 287.745186 55.599506 287.000133 57.398222 287.000133 59.273491 
C 287.000133 61.14876 287.745186 62.947475 289.071201 64.273491 
C 290.397217 65.599506 292.195932 66.344559 294.071201 66.344559 
z
" clip-path="url(#p486bfd9c74)" style="fill: #0000ff; stroke: #0000ff"/>
    <path d="M 398.487273 170.986087 
C 400.362542 170.986087 402.161257 170.241035 403.487273 168.915019 
C 404.813288 167.589004 405.558341 165.790289 405.558341 163.915019 
C 405.558341 162.03975 404.813288 160.241035 403.487273 158.915019 
C 402.161257 157.589004 400.362542 156.843952 398.487273 156.843952 
C 396.612004 156.843952 394.813288 157.589004 393.487273 158.915019 
C 392.161257 160.241035 391.416205 162.03975 391.416205 163.915019 
C 391.416205 165.790289 392.161257 167.589004 393.487273 168.915019 
C 394.813288 170.241035 396.612004 170.986087 398.487273 170.986087 
z
" clip-path="url(#p486bfd9c74)" style="fill: #0000ff; stroke: #0000ff"/>
    <path d="M 230.238748 302.559068 
C 232.114017 302.559068 233.912733 301.814015 235.238748 300.488 
C 236.564764 299.161985 237.309816 297.363269 237.309816 295.488 
C 237.309816 293.612731 236.564764 291.814015 235.238748 290.488 
C 233.912733 289.161985 232.114017 288.416932 230.238748 288.416932 
C 228.363479 288.416932 226.564764 289.161985 225.238748 290.488 
C 223.912733 291.814015 223.16768 293.612731 223.16768 295.488 
C 223.16768 297.363269 223.912733 299.161985 225.238748 300.488 
C 226.564764 301.814015 228.363479 302.559068 230.238748 302.559068 
z
" clip-path="url(#p486bfd9c74)" style="fill: #0000ff; stroke: #0000ff"/>
    <path d="M 201.630883 91.47183 
C 203.506152 91.47183 205.304867 90.726778 206.630883 89.400763 
C 207.956898 88.074747 208.70195 86.276032 208.70195 84.400763 
C 208.70195 82.525494 207.956898 80.726778 206.630883 79.400763 
C 205.304867 78.074747 203.506152 77.329695 201.630883 77.329695 
C 199.755614 77.329695 197.956898 78.074747 196.630883 79.400763 
C 195.304867 80.726778 194.559815 82.525494 194.559815 84.400763 
C 194.559815 86.276032 195.304867 88.074747 196.630883 89.400763 
C 197.956898 90.726778 199.755614 91.47183 201.630883 91.47183 
z
" clip-path="url(#p486bfd9c74)" style="fill: #0000ff; stroke: #0000ff"/>
    <path d="M 360.256142 138.464943 
C 362.131411 138.464943 363.930127 137.719891 365.256142 136.393876 
C 366.582158 135.06786 367.32721 133.269145 367.32721 131.393876 
C 367.32721 129.518607 366.582158 127.719891 365.256142 126.393876 
C 363.930127 125.06786 362.131411 124.322808 360.256142 124.322808 
C 358.380873 124.322808 356.582158 125.06786 355.256142 126.393876 
C 353.930127 127.719891 353.185074 129.518607 353.185074 131.393876 
C 353.185074 133.269145 353.930127 135.06786 355.256142 136.393876 
C 356.582158 137.719891 358.380873 138.464943 360.256142 138.464943 
z
" clip-path="url(#p486bfd9c74)" style="fill: #0000ff; stroke: #0000ff"/>
   </g>
   <g id="PathCollection_2">
    <path d="M 66.761659 60.639068 
L 80.903795 60.639068 
L 80.903795 46.496932 
L 66.761659 46.496932 
z
" clip-path="url(#p486bfd9c74)" style="fill: #ff0000; stroke: #ff0000"/>
    <path d="M 303.914077 285.811769 
L 318.056213 285.811769 
L 318.056213 271.669633 
L 303.914077 271.669633 
z
" clip-path="url(#p486bfd9c74)" style="fill: #ff0000; stroke: #ff0000"/>
    <path d="M 113.86172 294.411998 
L 128.003856 294.411998 
L 128.003856 280.269863 
L 113.86172 280.269863 
z
" clip-path="url(#p486bfd9c74)" style="fill: #ff0000; stroke: #ff0000"/>
   </g>
  </g>
 </g>
 <defs>
  <clipPath id="p486bfd9c74">
   <rect x="57.6" y="41.472" width="357.12" height="266.112"/>
  </clipPath>
 </defs>
</svg>
