<?xml version="1.0" encoding="utf-8" standalone="no"?>
<!DOCTYPE svg PUBLIC "-//W3C//DTD SVG 1.1//EN"
  "http://www.w3.org/Graphics/SVG/1.1/DTD/svg11.dtd">
<svg xmlns:xlink="http://www.w3.org/1999/xlink" width="792pt" height="532.8pt" viewBox="0 0 792 532.8" xmlns="http://www.w3.org/2000/svg" version="1.1">
 <metadata>
  <rdf:RDF xmlns:dc="http://purl.org/dc/elements/1.1/" xmlns:cc="http://creativecommons.org/ns#" xmlns:rdf="http://www.w3.org/1999/02/22-rdf-syntax-ns#">
   <cc:Work>
    <dc:type rdf:resource="http://purl.org/dc/dcmitype/StillImage"/>
    <dc:date>2023-03-24T11:21:03.687007</dc:date>
    <dc:format>image/svg+xml</dc:format>
    <dc:creator>
     <cc:Agent>
      <dc:title>Matplotlib v3.5.3, https://matplotlib.org/</dc:title>
     </cc:Agent>
    </dc:creator>
   </cc:Work>
  </rdf:RDF>
 </metadata>
 <defs>
  <style type="text/css">*{stroke-linejoin: round; stroke-linecap: butt}</style>
 </defs>
 <g id="figure_1">
  <g id="patch_1">
   <path d="M 0 532.8 
L 792 532.8 
L 792 0 
L 0 0 
z
" style="fill: #ffffff"/>
  </g>
  <g id="axes_1">
   <g id="patch_2">
    <path d="M 63.74 158.573333 
L 385.625 158.573333 
L 385.625 39.76 
L 63.74 39.76 
z
" style="fill: #ffffff"/>
   </g>
   <g id="matplotlib.axis_1">
    <g id="xtick_1">
     <g id="line2d_1">
      <defs>
       <path id="m3ea674f7d6" d="M 0 0 
L 0 3.5 
" style="stroke: #000000; stroke-width: 0.8"/>
      </defs>
      <g>
       <use xlink:href="#m3ea674f7d6" x="63.74" y="158.573333" style="stroke: #000000; stroke-width: 0.8"/>
      </g>
     </g>
     <g id="text_1">
      <text style="font: 16px 'sans-serif'; text-anchor: middle" x="63.74" y="177.730833" transform="rotate(-0, 63.74, 177.730833)">0</text>
     </g>
    </g>
    <g id="xtick_2">
     <g id="line2d_2">
      <g>
       <use xlink:href="#m3ea674f7d6" x="117.3875" y="158.573333" style="stroke: #000000; stroke-width: 0.8"/>
      </g>
     </g>
     <g id="text_2">
      <text style="font: 16px 'sans-serif'; text-anchor: middle" x="117.3875" y="177.730833" transform="rotate(-0, 117.3875, 177.730833)">25</text>
     </g>
    </g>
    <g id="xtick_3">
     <g id="line2d_3">
      <g>
       <use xlink:href="#m3ea674f7d6" x="171.035" y="158.573333" style="stroke: #000000; stroke-width: 0.8"/>
      </g>
     </g>
     <g id="text_3">
      <text style="font: 16px 'sans-serif'; text-anchor: middle" x="171.035" y="177.730833" transform="rotate(-0, 171.035, 177.730833)">50</text>
     </g>
    </g>
    <g id="xtick_4">
     <g id="line2d_4">
      <g>
       <use xlink:href="#m3ea674f7d6" x="224.6825" y="158.573333" style="stroke: #000000; stroke-width: 0.8"/>
      </g>
     </g>
     <g id="text_4">
      <text style="font: 16px 'sans-serif'; text-anchor: middle" x="224.6825" y="177.730833" transform="rotate(-0, 224.6825, 177.730833)">75</text>
     </g>
    </g>
    <g id="xtick_5">
     <g id="line2d_5">
      <g>
       <use xlink:href="#m3ea674f7d6" x="278.33" y="158.573333" style="stroke: #000000; stroke-width: 0.8"/>
      </g>
     </g>
     <g id="text_5">
      <text style="font: 16px 'sans-serif'; text-anchor: middle" x="278.33" y="177.730833" transform="rotate(-0, 278.33, 177.730833)">100</text>
     </g>
    </g>
    <g id="xtick_6">
     <g id="line2d_6">
      <g>
       <use xlink:href="#m3ea674f7d6" x="331.9775" y="158.573333" style="stroke: #000000; stroke-width: 0.8"/>
      </g>
     </g>
     <g id="text_6">
      <text style="font: 16px 'sans-serif'; text-anchor: middle" x="331.9775" y="177.730833" transform="rotate(-0, 331.9775, 177.730833)">125</text>
     </g>
    </g>
    <g id="xtick_7">
     <g id="line2d_7">
      <g>
       <use xlink:href="#m3ea674f7d6" x="385.625" y="158.573333" style="stroke: #000000; stroke-width: 0.8"/>
      </g>
     </g>
     <g id="text_7">
      <text style="font: 16px 'sans-serif'; text-anchor: middle" x="385.625" y="177.730833" transform="rotate(-0, 385.625, 177.730833)">150</text>
     </g>
    </g>
   </g>
   <g id="matplotlib.axis_2">
    <g id="ytick_1">
     <g id="line2d_8">
      <defs>
       <path id="m53b14e7303" d="M 0 0 
L -3.5 0 
" style="stroke: #000000; stroke-width: 0.8"/>
      </defs>
      <g>
       <use xlink:href="#m53b14e7303" x="63.74" y="149.068267" style="stroke: #000000; stroke-width: 0.8"/>
      </g>
     </g>
     <g id="text_8">
      <text style="font: 16px 'sans-serif'; text-anchor: end" x="56.74" y="155.147017" transform="rotate(-0, 56.74, 155.147017)">0.5</text>
     </g>
    </g>
    <g id="ytick_2">
     <g id="line2d_9">
      <g>
       <use xlink:href="#m53b14e7303" x="63.74" y="125.3056" style="stroke: #000000; stroke-width: 0.8"/>
      </g>
     </g>
     <g id="text_9">
      <text style="font: 16px 'sans-serif'; text-anchor: end" x="56.74" y="131.38435" transform="rotate(-0, 56.74, 131.38435)">1.0</text>
     </g>
    </g>
    <g id="ytick_3">
     <g id="line2d_10">
      <g>
       <use xlink:href="#m53b14e7303" x="63.74" y="101.542933" style="stroke: #000000; stroke-width: 0.8"/>
      </g>
     </g>
     <g id="text_10">
      <text style="font: 16px 'sans-serif'; text-anchor: end" x="56.74" y="107.621683" transform="rotate(-0, 56.74, 107.621683)">1.5</text>
     </g>
    </g>
    <g id="ytick_4">
     <g id="line2d_11">
      <g>
       <use xlink:href="#m53b14e7303" x="63.74" y="77.780267" style="stroke: #000000; stroke-width: 0.8"/>
      </g>
     </g>
     <g id="text_11">
      <text style="font: 16px 'sans-serif'; text-anchor: end" x="56.74" y="83.859017" transform="rotate(-0, 56.74, 83.859017)">2.0</text>
     </g>
    </g>
    <g id="ytick_5">
     <g id="line2d_12">
      <g>
       <use xlink:href="#m53b14e7303" x="63.74" y="54.0176" style="stroke: #000000; stroke-width: 0.8"/>
      </g>
     </g>
     <g id="text_12">
      <text style="font: 16px 'sans-serif'; text-anchor: end" x="56.74" y="60.09635" transform="rotate(-0, 56.74, 60.09635)">2.5</text>
     </g>
    </g>
    <g id="text_13">
     <text style="font: 16px 'sans-serif'; text-anchor: middle" x="23.9675" y="99.166667" transform="rotate(-90, 23.9675, 99.166667)">CE loss</text>
    </g>
   </g>
   <g id="line2d_13">
    <path d="M 65.8859 55.631565 
L 68.0318 56.164039 
L 72.3236 56.72671 
L 74.4695 57.110874 
L 76.6154 56.912458 
L 80.9072 57.013847 
L 83.0531 57.224602 
L 85.199 57.676355 
L 87.3449 57.714008 
L 91.6367 57.972896 
L 93.7826 57.598557 
L 95.9285 57.664174 
L 98.0744 58.088846 
L 100.2203 58.298411 
L 102.3662 58.042366 
L 104.5121 58.17989 
L 106.658 58.578217 
L 108.8039 58.655618 
L 110.9498 58.899823 
L 113.0957 60.077298 
L 115.2416 67.617562 
L 119.5334 77.448611 
L 125.9711 88.15159 
L 128.117 91.456322 
L 130.2629 93.022777 
L 132.4088 97.213835 
L 134.5547 102.518956 
L 136.7006 106.142597 
L 138.8465 109.074762 
L 140.9924 112.910585 
L 145.2842 118.052218 
L 147.4301 120.330742 
L 149.576 123.207532 
L 151.7219 125.626121 
L 153.8678 127.717203 
L 156.0137 129.529768 
L 158.1596 130.830416 
L 160.3055 131.95437 
L 162.4514 132.862221 
L 164.5973 133.443936 
L 166.7432 134.212677 
L 168.8891 134.534169 
L 171.035 135.166936 
L 173.1809 136.003741 
L 177.4727 136.621209 
L 179.6186 136.86345 
L 181.7645 137.569749 
L 183.9104 137.718572 
L 186.0563 138.19519 
L 188.2022 138.195564 
L 192.494 138.880858 
L 194.6399 138.928108 
L 196.7858 139.391758 
L 201.0776 139.601816 
L 203.2235 139.887758 
L 205.3694 139.767248 
L 207.5153 140.066914 
L 209.6612 140.153788 
L 211.8071 140.676826 
L 213.953 140.493387 
L 216.0989 140.510505 
L 220.3907 141.075352 
L 222.5366 140.897575 
L 224.6825 141.036195 
L 226.8284 141.356823 
L 231.1202 141.505882 
L 233.2661 141.411829 
L 237.5579 141.836314 
L 239.7038 141.661311 
L 241.8497 141.994134 
L 248.2874 141.929176 
L 256.871 142.376997 
L 259.0169 142.605278 
L 263.3087 142.76603 
L 265.4546 142.456124 
L 267.6005 142.740505 
L 269.7464 142.583084 
L 274.0382 143.358779 
L 276.1841 143.04638 
L 278.33 143.25337 
L 280.4759 144.169665 
L 282.6218 144.533714 
L 286.9136 144.66871 
L 293.3513 144.969807 
L 295.4972 144.722187 
L 301.9349 145.025748 
L 304.0808 144.962564 
L 306.2267 145.022518 
L 308.3726 144.942321 
L 312.6644 144.990095 
L 323.3939 145.285965 
L 327.6857 145.195505 
L 329.8316 145.325323 
L 344.8529 145.367568 
L 346.9988 145.564029 
L 351.2906 145.535951 
L 362.0201 145.543704 
L 364.166 145.474979 
L 368.4578 145.701668 
L 370.6037 145.637756 
L 374.8955 145.846962 
L 377.0414 145.583728 
L 385.625 145.763767 
L 385.625 145.763767 
" clip-path="url(#pfb779b0c3a)" style="fill: none; stroke: #2196f3; stroke-width: 1.5; stroke-linecap: square"/>
   </g>
   <g id="line2d_14">
    <path d="M 65.8859 55.73624 
L 68.0318 56.238982 
L 76.6154 57.357503 
L 78.7613 58.444637 
L 80.9072 61.320414 
L 83.0531 66.88708 
L 87.3449 81.988934 
L 89.4908 87.739394 
L 91.6367 94.04384 
L 93.7826 100.801868 
L 95.9285 105.997482 
L 98.0744 109.639671 
L 100.2203 112.748213 
L 102.3662 116.053211 
L 104.5121 118.659481 
L 106.658 120.197337 
L 108.8039 122.070491 
L 110.9498 123.117741 
L 117.3875 128.023611 
L 119.5334 128.854929 
L 121.6793 129.989313 
L 123.8252 130.782328 
L 128.117 131.934379 
L 130.2629 132.766987 
L 132.4088 133.294558 
L 134.5547 133.295311 
L 138.8465 134.067003 
L 140.9924 134.692997 
L 145.2842 135.121476 
L 151.7219 135.786468 
L 153.8678 136.217106 
L 156.0137 136.396349 
L 158.1596 136.405117 
L 160.3055 136.527111 
L 162.4514 136.836066 
L 164.5973 137.287484 
L 166.7432 137.47445 
L 171.035 137.364945 
L 175.3268 138.036415 
L 177.4727 138.39609 
L 179.6186 138.216212 
L 181.7645 138.500034 
L 183.9104 138.563085 
L 186.0563 138.764385 
L 188.2022 138.72763 
L 192.494 139.094811 
L 196.7858 139.182567 
L 198.9317 139.376563 
L 201.0776 139.428238 
L 203.2235 139.686912 
L 205.3694 139.520424 
L 207.5153 139.887591 
L 216.0989 140.122489 
L 218.2448 140.545759 
L 220.3907 140.398131 
L 222.5366 140.511953 
L 224.6825 140.928053 
L 226.8284 141.000817 
L 228.9743 141.205621 
L 231.1202 141.201768 
L 235.412 141.387354 
L 237.5579 141.368488 
L 241.8497 141.856106 
L 246.1415 141.883547 
L 252.5792 142.301397 
L 254.7251 142.04678 
L 256.871 142.23508 
L 259.0169 142.72729 
L 261.1628 142.607904 
L 263.3087 142.955175 
L 265.4546 143.070554 
L 269.7464 142.721933 
L 274.0382 143.353516 
L 276.1841 143.590176 
L 278.33 143.491643 
L 280.4759 144.432089 
L 282.6218 144.989746 
L 286.9136 145.243214 
L 289.0595 145.492026 
L 291.2054 145.463557 
L 293.3513 145.571187 
L 297.6431 145.592183 
L 299.789 145.780704 
L 306.2267 145.925202 
L 308.3726 145.853123 
L 312.6644 145.922862 
L 314.8103 145.866154 
L 316.9562 146.094409 
L 319.1021 145.991145 
L 321.248 146.21646 
L 325.5398 146.061465 
L 329.8316 146.285944 
L 336.2693 146.308561 
L 342.707 146.500918 
L 344.8529 146.446311 
L 346.9988 146.559671 
L 349.1447 146.547706 
L 351.2906 146.737317 
L 353.4365 146.62517 
L 355.5824 146.745714 
L 357.7283 146.678592 
L 359.8742 146.820441 
L 362.0201 146.675082 
L 368.4578 146.944087 
L 370.6037 146.80668 
L 374.8955 147.015132 
L 379.1873 146.908584 
L 381.3332 146.89727 
L 385.625 147.17121 
L 385.625 147.17121 
" clip-path="url(#pfb779b0c3a)" style="fill: none; stroke: #f44336; stroke-width: 1.5; stroke-linecap: square"/>
   </g>
   <g id="LineCollection_1">
    <path d="M 63.74 149.068267 
L 396.3545 149.068267 
" clip-path="url(#pfb779b0c3a)" style="fill: none; stroke: #a9a9a9; stroke-width: 0.5"/>
    <path d="M 63.74 125.3056 
L 396.3545 125.3056 
" clip-path="url(#pfb779b0c3a)" style="fill: none; stroke: #a9a9a9; stroke-width: 0.5"/>
    <path d="M 63.74 101.542933 
L 396.3545 101.542933 
" clip-path="url(#pfb779b0c3a)" style="fill: none; stroke: #a9a9a9; stroke-width: 0.5"/>
    <path d="M 63.74 77.780267 
L 396.3545 77.780267 
" clip-path="url(#pfb779b0c3a)" style="fill: none; stroke: #a9a9a9; stroke-width: 0.5"/>
    <path d="M 63.74 54.0176 
L 396.3545 54.0176 
" clip-path="url(#pfb779b0c3a)" style="fill: none; stroke: #a9a9a9; stroke-width: 0.5"/>
   </g>
   <g id="patch_3">
    <path d="M 63.74 158.573333 
L 63.74 39.76 
" style="fill: none; stroke: #000000; stroke-width: 0.8; stroke-linejoin: miter; stroke-linecap: square"/>
   </g>
   <g id="patch_4">
    <path d="M 385.625 158.573333 
L 385.625 39.76 
" style="fill: none; stroke: #000000; stroke-width: 0.8; stroke-linejoin: miter; stroke-linecap: square"/>
   </g>
   <g id="patch_5">
    <path d="M 63.74 158.573333 
L 385.625 158.573333 
" style="fill: none; stroke: #000000; stroke-width: 0.8; stroke-linejoin: miter; stroke-linecap: square"/>
   </g>
   <g id="patch_6">
    <path d="M 63.74 39.76 
L 385.625 39.76 
" style="fill: none; stroke: #000000; stroke-width: 0.8; stroke-linejoin: miter; stroke-linecap: square"/>
   </g>
   <g id="text_14">
    <text style="font: 16px 'sans-serif'; text-anchor: middle" x="224.6825" y="23.76" transform="rotate(-0, 224.6825, 23.76)">Training</text>
   </g>
   <g id="legend_1">
    <g id="patch_7">
     <path d="M 239.9825 99.53 
L 374.425 99.53 
Q 377.625 99.53 377.625 96.33 
L 377.625 50.96 
Q 377.625 47.76 374.425 47.76 
L 239.9825 47.76 
Q 236.7825 47.76 236.7825 50.96 
L 236.7825 96.33 
Q 236.7825 99.53 239.9825 99.53 
z
" style="fill: #ffffff; opacity: 0.8; stroke: #cccccc; stroke-linejoin: miter"/>
    </g>
    <g id="line2d_15">
     <path d="M 243.1825 60.7175 
L 259.1825 60.7175 
L 275.1825 60.7175 
" style="fill: none; stroke: #2196f3; stroke-width: 1.5; stroke-linecap: square"/>
    </g>
    <g id="text_15">
     <text style="font: 16px 'sans-serif'; text-anchor: start" x="287.9825" y="66.3175" transform="rotate(-0, 287.9825, 66.3175)">Hungarian</text>
    </g>
    <g id="line2d_16">
     <path d="M 243.1825 84.2025 
L 259.1825 84.2025 
L 275.1825 84.2025 
" style="fill: none; stroke: #f44336; stroke-width: 1.5; stroke-linecap: square"/>
    </g>
    <g id="text_16">
     <text style="font: 16px 'sans-serif'; text-anchor: start" x="287.9825" y="89.8025" transform="rotate(-0, 287.9825, 89.8025)">OT</text>
    </g>
   </g>
  </g>
  <g id="axes_2">
   <g id="patch_8">
    <path d="M 444.06 158.573333 
L 765.945 158.573333 
L 765.945 39.76 
L 444.06 39.76 
z
" style="fill: #ffffff"/>
   </g>
   <g id="matplotlib.axis_3">
    <g id="xtick_8">
     <g id="line2d_17">
      <g>
       <use xlink:href="#m3ea674f7d6" x="444.06" y="158.573333" style="stroke: #000000; stroke-width: 0.8"/>
      </g>
     </g>
     <g id="text_17">
      <text style="font: 16px 'sans-serif'; text-anchor: middle" x="444.06" y="177.730833" transform="rotate(-0, 444.06, 177.730833)">0</text>
     </g>
    </g>
    <g id="xtick_9">
     <g id="line2d_18">
      <g>
       <use xlink:href="#m3ea674f7d6" x="497.7075" y="158.573333" style="stroke: #000000; stroke-width: 0.8"/>
      </g>
     </g>
     <g id="text_18">
      <text style="font: 16px 'sans-serif'; text-anchor: middle" x="497.7075" y="177.730833" transform="rotate(-0, 497.7075, 177.730833)">25</text>
     </g>
    </g>
    <g id="xtick_10">
     <g id="line2d_19">
      <g>
       <use xlink:href="#m3ea674f7d6" x="551.355" y="158.573333" style="stroke: #000000; stroke-width: 0.8"/>
      </g>
     </g>
     <g id="text_19">
      <text style="font: 16px 'sans-serif'; text-anchor: middle" x="551.355" y="177.730833" transform="rotate(-0, 551.355, 177.730833)">50</text>
     </g>
    </g>
    <g id="xtick_11">
     <g id="line2d_20">
      <g>
       <use xlink:href="#m3ea674f7d6" x="605.0025" y="158.573333" style="stroke: #000000; stroke-width: 0.8"/>
      </g>
     </g>
     <g id="text_20">
      <text style="font: 16px 'sans-serif'; text-anchor: middle" x="605.0025" y="177.730833" transform="rotate(-0, 605.0025, 177.730833)">75</text>
     </g>
    </g>
    <g id="xtick_12">
     <g id="line2d_21">
      <g>
       <use xlink:href="#m3ea674f7d6" x="658.65" y="158.573333" style="stroke: #000000; stroke-width: 0.8"/>
      </g>
     </g>
     <g id="text_21">
      <text style="font: 16px 'sans-serif'; text-anchor: middle" x="658.65" y="177.730833" transform="rotate(-0, 658.65, 177.730833)">100</text>
     </g>
    </g>
    <g id="xtick_13">
     <g id="line2d_22">
      <g>
       <use xlink:href="#m3ea674f7d6" x="712.2975" y="158.573333" style="stroke: #000000; stroke-width: 0.8"/>
      </g>
     </g>
     <g id="text_22">
      <text style="font: 16px 'sans-serif'; text-anchor: middle" x="712.2975" y="177.730833" transform="rotate(-0, 712.2975, 177.730833)">125</text>
     </g>
    </g>
    <g id="xtick_14">
     <g id="line2d_23">
      <g>
       <use xlink:href="#m3ea674f7d6" x="765.945" y="158.573333" style="stroke: #000000; stroke-width: 0.8"/>
      </g>
     </g>
     <g id="text_23">
      <text style="font: 16px 'sans-serif'; text-anchor: middle" x="765.945" y="177.730833" transform="rotate(-0, 765.945, 177.730833)">150</text>
     </g>
    </g>
   </g>
   <g id="matplotlib.axis_4">
    <g id="ytick_6">
     <g id="line2d_24">
      <g>
       <use xlink:href="#m53b14e7303" x="444.06" y="149.068267" style="stroke: #000000; stroke-width: 0.8"/>
      </g>
     </g>
     <g id="text_24">
      <text style="font: 16px 'sans-serif'; text-anchor: end" x="437.06" y="155.147017" transform="rotate(-0, 437.06, 155.147017)">0.5</text>
     </g>
    </g>
    <g id="ytick_7">
     <g id="line2d_25">
      <g>
       <use xlink:href="#m53b14e7303" x="444.06" y="125.3056" style="stroke: #000000; stroke-width: 0.8"/>
      </g>
     </g>
     <g id="text_25">
      <text style="font: 16px 'sans-serif'; text-anchor: end" x="437.06" y="131.38435" transform="rotate(-0, 437.06, 131.38435)">1.0</text>
     </g>
    </g>
    <g id="ytick_8">
     <g id="line2d_26">
      <g>
       <use xlink:href="#m53b14e7303" x="444.06" y="101.542933" style="stroke: #000000; stroke-width: 0.8"/>
      </g>
     </g>
     <g id="text_26">
      <text style="font: 16px 'sans-serif'; text-anchor: end" x="437.06" y="107.621683" transform="rotate(-0, 437.06, 107.621683)">1.5</text>
     </g>
    </g>
    <g id="ytick_9">
     <g id="line2d_27">
      <g>
       <use xlink:href="#m53b14e7303" x="444.06" y="77.780267" style="stroke: #000000; stroke-width: 0.8"/>
      </g>
     </g>
     <g id="text_27">
      <text style="font: 16px 'sans-serif'; text-anchor: end" x="437.06" y="83.859017" transform="rotate(-0, 437.06, 83.859017)">2.0</text>
     </g>
    </g>
    <g id="ytick_10">
     <g id="line2d_28">
      <g>
       <use xlink:href="#m53b14e7303" x="444.06" y="54.0176" style="stroke: #000000; stroke-width: 0.8"/>
      </g>
     </g>
     <g id="text_28">
      <text style="font: 16px 'sans-serif'; text-anchor: end" x="437.06" y="60.09635" transform="rotate(-0, 437.06, 60.09635)">2.5</text>
     </g>
    </g>
   </g>
   <g id="line2d_29">
    <path d="M 446.2059 53.722939 
L 448.3518 54.725431 
L 450.4977 54.613063 
L 452.6436 55.307036 
L 454.7895 54.480661 
L 456.9354 55.132359 
L 459.0813 55.18907 
L 461.2272 55.422566 
L 463.3731 56.32827 
L 465.519 55.720162 
L 467.6649 56.467583 
L 469.8108 56.212864 
L 471.9567 55.737045 
L 474.1026 55.909264 
L 478.3944 56.583793 
L 480.5403 55.791909 
L 482.6862 57.146827 
L 484.8321 57.564179 
L 486.978 56.248715 
L 489.1239 56.941409 
L 491.2698 57.313051 
L 493.4157 60.693281 
L 495.5616 69.323705 
L 497.7075 72.773393 
L 499.8534 79.205606 
L 504.1452 87.467259 
L 506.2911 90.817161 
L 508.437 92.529751 
L 510.5829 93.078156 
L 512.7288 101.919194 
L 514.8747 105.728536 
L 517.0206 110.453248 
L 519.1665 110.855739 
L 521.3124 116.490165 
L 523.4583 118.812625 
L 525.6042 118.821185 
L 527.7501 123.823153 
L 529.896 126.994633 
L 532.0419 128.480539 
L 534.1878 130.335178 
L 536.3337 131.942422 
L 538.4796 132.297581 
L 540.6255 133.438466 
L 542.7714 135.156664 
L 544.9173 135.259201 
L 547.0632 135.209727 
L 549.2091 135.9018 
L 551.355 136.190506 
L 553.5009 137.591249 
L 555.6468 137.195026 
L 557.7927 137.602478 
L 559.9386 137.83632 
L 562.0845 138.277702 
L 564.2304 138.30787 
L 566.3763 138.851922 
L 568.5222 138.891053 
L 570.6681 139.113414 
L 572.814 138.837268 
L 574.9599 139.43209 
L 577.1058 139.226029 
L 579.2517 139.452911 
L 581.3976 140.040975 
L 589.9812 139.618037 
L 592.1271 140.356209 
L 594.273 140.602059 
L 596.4189 140.297889 
L 598.5648 140.280216 
L 602.8566 140.731552 
L 605.0025 140.486518 
L 607.1484 140.871203 
L 609.2943 140.935551 
L 611.4402 141.286764 
L 613.5861 141.004534 
L 615.732 140.859178 
L 617.8779 141.228265 
L 620.0238 140.880956 
L 622.1697 141.505527 
L 624.3156 140.692112 
L 626.4615 140.584117 
L 628.6074 141.377327 
L 630.7533 141.700949 
L 632.8992 141.317525 
L 635.0451 141.344373 
L 637.191 141.136253 
L 639.3369 141.691391 
L 641.4828 141.23524 
L 643.6287 141.781552 
L 647.9205 141.420633 
L 650.0664 141.142975 
L 652.2123 141.730803 
L 654.3582 141.760445 
L 662.9418 142.721944 
L 665.0877 142.794244 
L 667.2336 142.513651 
L 669.3795 142.726902 
L 673.6713 142.775676 
L 675.8172 142.773752 
L 677.9631 142.994535 
L 680.109 142.89403 
L 682.2549 143.156729 
L 684.4008 142.918202 
L 695.1303 142.911477 
L 701.568 142.925536 
L 703.7139 143.118904 
L 705.8598 143.145118 
L 708.0057 142.889316 
L 714.4434 143.233131 
L 718.7352 143.04393 
L 720.8811 143.05138 
L 723.027 143.200874 
L 725.1729 142.935685 
L 727.3188 143.129634 
L 729.4647 143.184218 
L 731.6106 143.008132 
L 733.7565 143.194571 
L 735.9024 143.165992 
L 738.0483 142.897061 
L 740.1942 143.029633 
L 742.3401 142.993082 
L 746.6319 143.138257 
L 750.9237 143.1157 
L 759.5073 143.222043 
L 761.6532 143.112915 
L 763.7991 143.165171 
L 765.945 143.086687 
L 765.945 143.086687 
" clip-path="url(#p2a0f274b69)" style="fill: none; stroke: #2196f3; stroke-width: 1.5; stroke-linecap: square"/>
   </g>
   <g id="line2d_30">
    <path d="M 446.2059 55.045643 
L 448.3518 55.031672 
L 450.4977 55.172266 
L 452.6436 55.003164 
L 454.7895 55.626829 
L 456.9354 55.838377 
L 459.0813 58.422349 
L 461.2272 62.374371 
L 465.519 79.540265 
L 467.6649 84.815461 
L 471.9567 99.362099 
L 474.1026 105.89228 
L 476.2485 109.933685 
L 480.5403 116.131615 
L 482.6862 118.271046 
L 484.8321 121.127974 
L 486.978 122.848688 
L 489.1239 124.115287 
L 491.2698 123.667794 
L 493.4157 126.414897 
L 495.5616 128.428306 
L 497.7075 129.77932 
L 499.8534 131.346936 
L 501.9993 132.379577 
L 504.1452 132.280437 
L 506.2911 133.358611 
L 508.437 133.379486 
L 510.5829 133.702983 
L 512.7288 134.788064 
L 514.8747 134.285124 
L 517.0206 135.390127 
L 519.1665 135.789882 
L 523.4583 135.62462 
L 525.6042 136.424544 
L 527.7501 136.23975 
L 529.896 137.60792 
L 532.0419 137.005233 
L 534.1878 136.792051 
L 536.3337 137.214776 
L 538.4796 137.070936 
L 540.6255 137.639097 
L 542.7714 138.057627 
L 544.9173 137.601455 
L 547.0632 138.145762 
L 553.5009 138.29999 
L 557.7927 139.019245 
L 559.9386 139.090877 
L 562.0845 138.87532 
L 564.2304 138.309307 
L 566.3763 138.628238 
L 568.5222 139.083769 
L 570.6681 139.164848 
L 572.814 139.02233 
L 574.9599 139.460945 
L 577.1058 139.293726 
L 579.2517 139.576129 
L 581.3976 139.426473 
L 583.5435 139.036789 
L 585.6894 139.549057 
L 587.8353 139.802569 
L 589.9812 139.670841 
L 596.4189 139.86168 
L 598.5648 140.138942 
L 600.7107 140.003668 
L 602.8566 140.089706 
L 607.1484 140.45557 
L 611.4402 139.846281 
L 613.5861 140.764627 
L 615.732 140.232056 
L 617.8779 141.123477 
L 622.1697 140.493651 
L 624.3156 140.35302 
L 626.4615 140.418971 
L 632.8992 140.988622 
L 635.0451 140.677461 
L 637.191 140.737192 
L 639.3369 140.525068 
L 641.4828 140.99935 
L 643.6287 141.111786 
L 645.7746 140.884715 
L 650.0664 140.810018 
L 654.3582 141.164555 
L 656.5041 141.091663 
L 658.65 140.498265 
L 660.7959 141.837104 
L 665.0877 142.03607 
L 677.9631 142.011957 
L 680.109 141.920092 
L 682.2549 142.169647 
L 688.6926 141.925001 
L 690.8385 142.056142 
L 692.9844 141.974452 
L 695.1303 142.009054 
L 697.2762 141.911829 
L 699.4221 141.953314 
L 701.568 141.829858 
L 712.2975 141.992737 
L 714.4434 141.878811 
L 718.7352 141.860993 
L 723.027 141.769391 
L 727.3188 141.987211 
L 729.4647 141.831926 
L 744.486 141.602452 
L 746.6319 141.771549 
L 748.7778 141.809525 
L 750.9237 141.573097 
L 755.2155 141.688989 
L 761.6532 141.649116 
L 765.945 141.567086 
L 765.945 141.567086 
" clip-path="url(#p2a0f274b69)" style="fill: none; stroke: #f44336; stroke-width: 1.5; stroke-linecap: square"/>
   </g>
   <g id="LineCollection_2">
    <path d="M 444.06 149.068267 
L 776.6745 149.068267 
" clip-path="url(#p2a0f274b69)" style="fill: none; stroke: #a9a9a9; stroke-width: 0.5"/>
    <path d="M 444.06 125.3056 
L 776.6745 125.3056 
" clip-path="url(#p2a0f274b69)" style="fill: none; stroke: #a9a9a9; stroke-width: 0.5"/>
    <path d="M 444.06 101.542933 
L 776.6745 101.542933 
" clip-path="url(#p2a0f274b69)" style="fill: none; stroke: #a9a9a9; stroke-width: 0.5"/>
    <path d="M 444.06 77.780267 
L 776.6745 77.780267 
" clip-path="url(#p2a0f274b69)" style="fill: none; stroke: #a9a9a9; stroke-width: 0.5"/>
    <path d="M 444.06 54.0176 
L 776.6745 54.0176 
" clip-path="url(#p2a0f274b69)" style="fill: none; stroke: #a9a9a9; stroke-width: 0.5"/>
   </g>
   <g id="patch_9">
    <path d="M 444.06 158.573333 
L 444.06 39.76 
" style="fill: none; stroke: #000000; stroke-width: 0.8; stroke-linejoin: miter; stroke-linecap: square"/>
   </g>
   <g id="patch_10">
    <path d="M 765.945 158.573333 
L 765.945 39.76 
" style="fill: none; stroke: #000000; stroke-width: 0.8; stroke-linejoin: miter; stroke-linecap: square"/>
   </g>
   <g id="patch_11">
    <path d="M 444.06 158.573333 
L 765.945 158.573333 
" style="fill: none; stroke: #000000; stroke-width: 0.8; stroke-linejoin: miter; stroke-linecap: square"/>
   </g>
   <g id="patch_12">
    <path d="M 444.06 39.76 
L 765.945 39.76 
" style="fill: none; stroke: #000000; stroke-width: 0.8; stroke-linejoin: miter; stroke-linecap: square"/>
   </g>
   <g id="text_29">
    <text style="font: 16px 'sans-serif'; text-anchor: middle" x="605.0025" y="23.76" transform="rotate(-0, 605.0025, 23.76)">Validation</text>
   </g>
   <g id="legend_2">
    <g id="patch_13">
     <path d="M 620.3025 99.53 
L 754.745 99.53 
Q 757.945 99.53 757.945 96.33 
L 757.945 50.96 
Q 757.945 47.76 754.745 47.76 
L 620.3025 47.76 
Q 617.1025 47.76 617.1025 50.96 
L 617.1025 96.33 
Q 617.1025 99.53 620.3025 99.53 
z
" style="fill: #ffffff; opacity: 0.8; stroke: #cccccc; stroke-linejoin: miter"/>
    </g>
    <g id="line2d_31">
     <path d="M 623.5025 60.7175 
L 639.5025 60.7175 
L 655.5025 60.7175 
" style="fill: none; stroke: #2196f3; stroke-width: 1.5; stroke-linecap: square"/>
    </g>
    <g id="text_30">
     <text style="font: 16px 'sans-serif'; text-anchor: start" x="668.3025" y="66.3175" transform="rotate(-0, 668.3025, 66.3175)">Hungarian</text>
    </g>
    <g id="line2d_32">
     <path d="M 623.5025 84.2025 
L 639.5025 84.2025 
L 655.5025 84.2025 
" style="fill: none; stroke: #f44336; stroke-width: 1.5; stroke-linecap: square"/>
    </g>
    <g id="text_31">
     <text style="font: 16px 'sans-serif'; text-anchor: start" x="668.3025" y="89.8025" transform="rotate(-0, 668.3025, 89.8025)">OT</text>
    </g>
   </g>
  </g>
  <g id="axes_3">
   <g id="patch_14">
    <path d="M 63.74 318.226667 
L 385.625 318.226667 
L 385.625 199.413333 
L 63.74 199.413333 
z
" style="fill: #ffffff"/>
   </g>
   <g id="matplotlib.axis_5">
    <g id="xtick_15">
     <g id="line2d_33">
      <g>
       <use xlink:href="#m3ea674f7d6" x="63.74" y="318.226667" style="stroke: #000000; stroke-width: 0.8"/>
      </g>
     </g>
     <g id="text_32">
      <text style="font: 16px 'sans-serif'; text-anchor: middle" x="63.74" y="337.384167" transform="rotate(-0, 63.74, 337.384167)">0</text>
     </g>
    </g>
    <g id="xtick_16">
     <g id="line2d_34">
      <g>
       <use xlink:href="#m3ea674f7d6" x="117.3875" y="318.226667" style="stroke: #000000; stroke-width: 0.8"/>
      </g>
     </g>
     <g id="text_33">
      <text style="font: 16px 'sans-serif'; text-anchor: middle" x="117.3875" y="337.384167" transform="rotate(-0, 117.3875, 337.384167)">25</text>
     </g>
    </g>
    <g id="xtick_17">
     <g id="line2d_35">
      <g>
       <use xlink:href="#m3ea674f7d6" x="171.035" y="318.226667" style="stroke: #000000; stroke-width: 0.8"/>
      </g>
     </g>
     <g id="text_34">
      <text style="font: 16px 'sans-serif'; text-anchor: middle" x="171.035" y="337.384167" transform="rotate(-0, 171.035, 337.384167)">50</text>
     </g>
    </g>
    <g id="xtick_18">
     <g id="line2d_36">
      <g>
       <use xlink:href="#m3ea674f7d6" x="224.6825" y="318.226667" style="stroke: #000000; stroke-width: 0.8"/>
      </g>
     </g>
     <g id="text_35">
      <text style="font: 16px 'sans-serif'; text-anchor: middle" x="224.6825" y="337.384167" transform="rotate(-0, 224.6825, 337.384167)">75</text>
     </g>
    </g>
    <g id="xtick_19">
     <g id="line2d_37">
      <g>
       <use xlink:href="#m3ea674f7d6" x="278.33" y="318.226667" style="stroke: #000000; stroke-width: 0.8"/>
      </g>
     </g>
     <g id="text_36">
      <text style="font: 16px 'sans-serif'; text-anchor: middle" x="278.33" y="337.384167" transform="rotate(-0, 278.33, 337.384167)">100</text>
     </g>
    </g>
    <g id="xtick_20">
     <g id="line2d_38">
      <g>
       <use xlink:href="#m3ea674f7d6" x="331.9775" y="318.226667" style="stroke: #000000; stroke-width: 0.8"/>
      </g>
     </g>
     <g id="text_37">
      <text style="font: 16px 'sans-serif'; text-anchor: middle" x="331.9775" y="337.384167" transform="rotate(-0, 331.9775, 337.384167)">125</text>
     </g>
    </g>
    <g id="xtick_21">
     <g id="line2d_39">
      <g>
       <use xlink:href="#m3ea674f7d6" x="385.625" y="318.226667" style="stroke: #000000; stroke-width: 0.8"/>
      </g>
     </g>
     <g id="text_38">
      <text style="font: 16px 'sans-serif'; text-anchor: middle" x="385.625" y="337.384167" transform="rotate(-0, 385.625, 337.384167)">150</text>
     </g>
    </g>
   </g>
   <g id="matplotlib.axis_6">
    <g id="ytick_11">
     <g id="line2d_40">
      <g>
       <use xlink:href="#m53b14e7303" x="63.74" y="294.464" style="stroke: #000000; stroke-width: 0.8"/>
      </g>
     </g>
     <g id="text_39">
      <text style="font: 16px 'sans-serif'; text-anchor: end" x="56.74" y="300.54275" transform="rotate(-0, 56.74, 300.54275)">0.4</text>
     </g>
    </g>
    <g id="ytick_12">
     <g id="line2d_41">
      <g>
       <use xlink:href="#m53b14e7303" x="63.74" y="262.780444" style="stroke: #000000; stroke-width: 0.8"/>
      </g>
     </g>
     <g id="text_40">
      <text style="font: 16px 'sans-serif'; text-anchor: end" x="56.74" y="268.859194" transform="rotate(-0, 56.74, 268.859194)">0.8</text>
     </g>
    </g>
    <g id="ytick_13">
     <g id="line2d_42">
      <g>
       <use xlink:href="#m53b14e7303" x="63.74" y="231.096889" style="stroke: #000000; stroke-width: 0.8"/>
      </g>
     </g>
     <g id="text_41">
      <text style="font: 16px 'sans-serif'; text-anchor: end" x="56.74" y="237.175639" transform="rotate(-0, 56.74, 237.175639)">1.2</text>
     </g>
    </g>
    <g id="ytick_14">
     <g id="line2d_43">
      <g>
       <use xlink:href="#m53b14e7303" x="63.74" y="199.413333" style="stroke: #000000; stroke-width: 0.8"/>
      </g>
     </g>
     <g id="text_42">
      <text style="font: 16px 'sans-serif'; text-anchor: end" x="56.74" y="205.492083" transform="rotate(-0, 56.74, 205.492083)">1.6</text>
     </g>
    </g>
    <g id="text_43">
     <text style="font: 16px 'sans-serif'; text-anchor: middle" x="23.9675" y="258.82" transform="rotate(-90, 23.9675, 258.82)">GIOU loss</text>
    </g>
   </g>
   <g id="line2d_44">
    <path d="M 65.8859 258.39955 
L 68.0318 270.732442 
L 70.1777 271.4159 
L 72.3236 272.491686 
L 74.4695 273.364304 
L 78.7613 275.937797 
L 80.9072 276.900449 
L 83.0531 278.82977 
L 85.199 281.246868 
L 87.3449 283.15 
L 89.4908 285.476116 
L 93.7826 289.597673 
L 95.9285 291.161092 
L 98.0744 292.549798 
L 100.2203 293.573401 
L 104.5121 297.178948 
L 106.658 297.897371 
L 108.8039 299.232467 
L 110.9498 299.39564 
L 113.0957 299.343482 
L 115.2416 296.021728 
L 117.3875 296.147985 
L 119.5334 295.33818 
L 121.6793 295.483032 
L 123.8252 295.072666 
L 128.117 295.125862 
L 132.4088 295.425768 
L 134.5547 295.420964 
L 136.7006 295.868734 
L 138.8465 295.952661 
L 140.9924 296.370075 
L 143.1383 296.526626 
L 145.2842 296.825834 
L 147.4301 296.523853 
L 153.8678 296.771882 
L 156.0137 297.141475 
L 158.1596 297.238052 
L 160.3055 297.733355 
L 162.4514 298.037572 
L 164.5973 298.54913 
L 166.7432 298.697461 
L 183.9104 300.964047 
L 186.0563 301.155218 
L 188.2022 301.114 
L 194.6399 301.528015 
L 198.9317 302.089196 
L 203.2235 302.420932 
L 205.3694 302.236432 
L 207.5153 302.651693 
L 216.0989 302.833227 
L 218.2448 303.108766 
L 220.3907 303.171497 
L 222.5366 303.436719 
L 224.6825 303.225428 
L 226.8284 303.567749 
L 228.9743 303.669253 
L 231.1202 303.982701 
L 233.2661 303.798947 
L 239.7038 303.948553 
L 243.9956 304.266628 
L 246.1415 304.161461 
L 250.4333 304.597801 
L 252.5792 304.641717 
L 254.7251 304.476224 
L 261.1628 304.708282 
L 263.3087 304.769072 
L 265.4546 304.698075 
L 267.6005 304.881144 
L 271.8923 304.98529 
L 278.33 305.377798 
L 280.4759 307.331154 
L 282.6218 307.791976 
L 284.7677 307.998613 
L 293.3513 308.349543 
L 295.4972 308.256881 
L 304.0808 308.505655 
L 314.8103 308.668373 
L 323.3939 308.735216 
L 325.5398 308.686614 
L 327.6857 308.811663 
L 336.2693 308.755759 
L 340.5611 308.961883 
L 342.707 308.996687 
L 344.8529 308.870935 
L 351.2906 309.017099 
L 353.4365 308.899231 
L 357.7283 309.064881 
L 372.7496 309.097856 
L 374.8955 309.208957 
L 377.0414 309.07066 
L 379.1873 309.183486 
L 383.4791 309.193334 
L 385.625 309.223779 
L 385.625 309.223779 
" clip-path="url(#p5ff3371e30)" style="fill: none; stroke: #2196f3; stroke-width: 1.5; stroke-linecap: square"/>
   </g>
   <g id="line2d_45">
    <path d="M 65.8859 244.205063 
L 68.0318 268.246641 
L 70.1777 269.185092 
L 72.3236 270.91666 
L 74.4695 271.86298 
L 76.6154 273.150943 
L 78.7613 274.240878 
L 80.9072 276.341145 
L 83.0531 279.634407 
L 85.199 282.001734 
L 87.3449 284.840253 
L 89.4908 286.801034 
L 91.6367 287.31435 
L 93.7826 288.224148 
L 100.2203 290.206269 
L 102.3662 291.032269 
L 104.5121 291.379189 
L 108.8039 292.34015 
L 110.9498 293.046749 
L 115.2416 295.015405 
L 117.3875 295.533414 
L 119.5334 296.248714 
L 121.6793 296.820725 
L 123.8252 297.174349 
L 125.9711 297.686705 
L 128.117 297.988127 
L 130.2629 298.54006 
L 132.4088 298.638484 
L 134.5547 299.104808 
L 136.7006 299.716293 
L 138.8465 299.938011 
L 140.9924 300.313121 
L 147.4301 300.824976 
L 149.576 300.881596 
L 151.7219 301.345833 
L 158.1596 302.111043 
L 168.8891 302.844409 
L 171.035 302.805282 
L 175.3268 303.423957 
L 177.4727 303.650934 
L 179.6186 303.419786 
L 181.7645 303.840534 
L 183.9104 303.864138 
L 186.0563 304.145303 
L 188.2022 303.960854 
L 192.494 304.297316 
L 194.6399 304.216029 
L 196.7858 304.403581 
L 201.0776 304.517615 
L 209.6612 305.164493 
L 211.8071 305.132561 
L 218.2448 305.39786 
L 224.6825 305.433383 
L 226.8284 305.674186 
L 231.1202 305.858243 
L 241.8497 306.087637 
L 243.9956 306.231361 
L 246.1415 306.174461 
L 250.4333 306.366239 
L 254.7251 306.261919 
L 256.871 306.563578 
L 263.3087 306.820758 
L 265.4546 306.81424 
L 267.6005 306.927614 
L 271.8923 306.589156 
L 274.0382 306.96202 
L 276.1841 306.984124 
L 278.33 307.210563 
L 280.4759 308.861637 
L 282.6218 309.271224 
L 289.0595 309.560101 
L 291.2054 309.53458 
L 293.3513 309.627866 
L 297.6431 309.615609 
L 304.0808 309.797116 
L 310.5185 309.838797 
L 312.6644 309.769051 
L 314.8103 309.837338 
L 316.9562 309.78603 
L 321.248 309.886323 
L 334.1234 310.02896 
L 336.2693 309.893672 
L 340.5611 310.049026 
L 344.8529 309.979539 
L 346.9988 310.083638 
L 355.5824 310.106227 
L 359.8742 310.162714 
L 364.166 310.159475 
L 366.3119 310.219415 
L 370.6037 310.147913 
L 379.1873 310.199777 
L 381.3332 310.187266 
L 385.625 310.299738 
L 385.625 310.299738 
" clip-path="url(#p5ff3371e30)" style="fill: none; stroke: #f44336; stroke-width: 1.5; stroke-linecap: square"/>
   </g>
   <g id="LineCollection_3">
    <path d="M 63.74 294.464 
L 396.3545 294.464 
" clip-path="url(#p5ff3371e30)" style="fill: none; stroke: #a9a9a9; stroke-width: 0.5"/>
    <path d="M 63.74 262.780444 
L 396.3545 262.780444 
" clip-path="url(#p5ff3371e30)" style="fill: none; stroke: #a9a9a9; stroke-width: 0.5"/>
    <path d="M 63.74 231.096889 
L 396.3545 231.096889 
" clip-path="url(#p5ff3371e30)" style="fill: none; stroke: #a9a9a9; stroke-width: 0.5"/>
    <path d="M 63.74 199.413333 
L 396.3545 199.413333 
" clip-path="url(#p5ff3371e30)" style="fill: none; stroke: #a9a9a9; stroke-width: 0.5"/>
   </g>
   <g id="patch_15">
    <path d="M 63.74 318.226667 
L 63.74 199.413333 
" style="fill: none; stroke: #000000; stroke-width: 0.8; stroke-linejoin: miter; stroke-linecap: square"/>
   </g>
   <g id="patch_16">
    <path d="M 385.625 318.226667 
L 385.625 199.413333 
" style="fill: none; stroke: #000000; stroke-width: 0.8; stroke-linejoin: miter; stroke-linecap: square"/>
   </g>
   <g id="patch_17">
    <path d="M 63.74 318.226667 
L 385.625 318.226667 
" style="fill: none; stroke: #000000; stroke-width: 0.8; stroke-linejoin: miter; stroke-linecap: square"/>
   </g>
   <g id="patch_18">
    <path d="M 63.74 199.413333 
L 385.625 199.413333 
" style="fill: none; stroke: #000000; stroke-width: 0.8; stroke-linejoin: miter; stroke-linecap: square"/>
   </g>
   <g id="legend_3">
    <g id="patch_19">
     <path d="M 239.9825 259.183333 
L 374.425 259.183333 
Q 377.625 259.183333 377.625 255.983333 
L 377.625 210.613333 
Q 377.625 207.413333 374.425 207.413333 
L 239.9825 207.413333 
Q 236.7825 207.413333 236.7825 210.613333 
L 236.7825 255.983333 
Q 236.7825 259.183333 239.9825 259.183333 
z
" style="fill: #ffffff; opacity: 0.8; stroke: #cccccc; stroke-linejoin: miter"/>
    </g>
    <g id="line2d_46">
     <path d="M 243.1825 220.370833 
L 259.1825 220.370833 
L 275.1825 220.370833 
" style="fill: none; stroke: #2196f3; stroke-width: 1.5; stroke-linecap: square"/>
    </g>
    <g id="text_44">
     <text style="font: 16px 'sans-serif'; text-anchor: start" x="287.9825" y="225.970833" transform="rotate(-0, 287.9825, 225.970833)">Hungarian</text>
    </g>
    <g id="line2d_47">
     <path d="M 243.1825 243.855833 
L 259.1825 243.855833 
L 275.1825 243.855833 
" style="fill: none; stroke: #f44336; stroke-width: 1.5; stroke-linecap: square"/>
    </g>
    <g id="text_45">
     <text style="font: 16px 'sans-serif'; text-anchor: start" x="287.9825" y="249.455833" transform="rotate(-0, 287.9825, 249.455833)">OT</text>
    </g>
   </g>
  </g>
  <g id="axes_4">
   <g id="patch_20">
    <path d="M 444.06 318.226667 
L 765.945 318.226667 
L 765.945 199.413333 
L 444.06 199.413333 
z
" style="fill: #ffffff"/>
   </g>
   <g id="matplotlib.axis_7">
    <g id="xtick_22">
     <g id="line2d_48">
      <g>
       <use xlink:href="#m3ea674f7d6" x="444.06" y="318.226667" style="stroke: #000000; stroke-width: 0.8"/>
      </g>
     </g>
     <g id="text_46">
      <text style="font: 16px 'sans-serif'; text-anchor: middle" x="444.06" y="337.384167" transform="rotate(-0, 444.06, 337.384167)">0</text>
     </g>
    </g>
    <g id="xtick_23">
     <g id="line2d_49">
      <g>
       <use xlink:href="#m3ea674f7d6" x="497.7075" y="318.226667" style="stroke: #000000; stroke-width: 0.8"/>
      </g>
     </g>
     <g id="text_47">
      <text style="font: 16px 'sans-serif'; text-anchor: middle" x="497.7075" y="337.384167" transform="rotate(-0, 497.7075, 337.384167)">25</text>
     </g>
    </g>
    <g id="xtick_24">
     <g id="line2d_50">
      <g>
       <use xlink:href="#m3ea674f7d6" x="551.355" y="318.226667" style="stroke: #000000; stroke-width: 0.8"/>
      </g>
     </g>
     <g id="text_48">
      <text style="font: 16px 'sans-serif'; text-anchor: middle" x="551.355" y="337.384167" transform="rotate(-0, 551.355, 337.384167)">50</text>
     </g>
    </g>
    <g id="xtick_25">
     <g id="line2d_51">
      <g>
       <use xlink:href="#m3ea674f7d6" x="605.0025" y="318.226667" style="stroke: #000000; stroke-width: 0.8"/>
      </g>
     </g>
     <g id="text_49">
      <text style="font: 16px 'sans-serif'; text-anchor: middle" x="605.0025" y="337.384167" transform="rotate(-0, 605.0025, 337.384167)">75</text>
     </g>
    </g>
    <g id="xtick_26">
     <g id="line2d_52">
      <g>
       <use xlink:href="#m3ea674f7d6" x="658.65" y="318.226667" style="stroke: #000000; stroke-width: 0.8"/>
      </g>
     </g>
     <g id="text_50">
      <text style="font: 16px 'sans-serif'; text-anchor: middle" x="658.65" y="337.384167" transform="rotate(-0, 658.65, 337.384167)">100</text>
     </g>
    </g>
    <g id="xtick_27">
     <g id="line2d_53">
      <g>
       <use xlink:href="#m3ea674f7d6" x="712.2975" y="318.226667" style="stroke: #000000; stroke-width: 0.8"/>
      </g>
     </g>
     <g id="text_51">
      <text style="font: 16px 'sans-serif'; text-anchor: middle" x="712.2975" y="337.384167" transform="rotate(-0, 712.2975, 337.384167)">125</text>
     </g>
    </g>
    <g id="xtick_28">
     <g id="line2d_54">
      <g>
       <use xlink:href="#m3ea674f7d6" x="765.945" y="318.226667" style="stroke: #000000; stroke-width: 0.8"/>
      </g>
     </g>
     <g id="text_52">
      <text style="font: 16px 'sans-serif'; text-anchor: middle" x="765.945" y="337.384167" transform="rotate(-0, 765.945, 337.384167)">150</text>
     </g>
    </g>
   </g>
   <g id="matplotlib.axis_8">
    <g id="ytick_15">
     <g id="line2d_55">
      <g>
       <use xlink:href="#m53b14e7303" x="444.06" y="294.464" style="stroke: #000000; stroke-width: 0.8"/>
      </g>
     </g>
     <g id="text_53">
      <text style="font: 16px 'sans-serif'; text-anchor: end" x="437.06" y="300.54275" transform="rotate(-0, 437.06, 300.54275)">0.4</text>
     </g>
    </g>
    <g id="ytick_16">
     <g id="line2d_56">
      <g>
       <use xlink:href="#m53b14e7303" x="444.06" y="262.780444" style="stroke: #000000; stroke-width: 0.8"/>
      </g>
     </g>
     <g id="text_54">
      <text style="font: 16px 'sans-serif'; text-anchor: end" x="437.06" y="268.859194" transform="rotate(-0, 437.06, 268.859194)">0.8</text>
     </g>
    </g>
    <g id="ytick_17">
     <g id="line2d_57">
      <g>
       <use xlink:href="#m53b14e7303" x="444.06" y="231.096889" style="stroke: #000000; stroke-width: 0.8"/>
      </g>
     </g>
     <g id="text_55">
      <text style="font: 16px 'sans-serif'; text-anchor: end" x="437.06" y="237.175639" transform="rotate(-0, 437.06, 237.175639)">1.2</text>
     </g>
    </g>
    <g id="ytick_18">
     <g id="line2d_58">
      <g>
       <use xlink:href="#m53b14e7303" x="444.06" y="199.413333" style="stroke: #000000; stroke-width: 0.8"/>
      </g>
     </g>
     <g id="text_56">
      <text style="font: 16px 'sans-serif'; text-anchor: end" x="437.06" y="205.492083" transform="rotate(-0, 437.06, 205.492083)">1.6</text>
     </g>
    </g>
   </g>
   <g id="line2d_59">
    <path d="M 446.2059 198.71987 
L 448.3518 200.71584 
L 450.4977 199.884452 
L 452.6436 209.806724 
L 454.7895 254.349444 
L 456.9354 234.442179 
L 459.0813 260.807178 
L 461.2272 276.452887 
L 463.3731 279.908063 
L 465.519 281.883694 
L 467.6649 284.023605 
L 469.8108 288.034534 
L 471.9567 287.603464 
L 474.1026 290.676424 
L 476.2485 293.965972 
L 478.3944 294.248337 
L 480.5403 291.541108 
L 482.6862 300.261974 
L 484.8321 296.492518 
L 486.978 301.326714 
L 489.1239 299.222364 
L 491.2698 299.166302 
L 493.4157 299.381865 
L 495.5616 297.054451 
L 497.7075 297.453798 
L 501.9993 296.730059 
L 504.1452 292.769944 
L 506.2911 296.885538 
L 508.437 295.271304 
L 510.5829 294.339305 
L 512.7288 296.739478 
L 514.8747 296.214065 
L 519.1665 297.299254 
L 521.3124 297.48158 
L 523.4583 299.42111 
L 525.6042 299.619475 
L 527.7501 299.024653 
L 529.896 299.000731 
L 532.0419 298.537006 
L 534.1878 296.84613 
L 536.3337 298.752263 
L 538.4796 300.444519 
L 540.6255 299.02099 
L 542.7714 301.655838 
L 544.9173 300.823204 
L 547.0632 300.50852 
L 549.2091 300.464899 
L 551.355 302.471987 
L 553.5009 298.833959 
L 555.6468 302.597078 
L 557.7927 303.168728 
L 559.9386 303.484186 
L 562.0845 304.419931 
L 564.2304 304.30665 
L 566.3763 301.794056 
L 568.5222 300.134949 
L 570.6681 304.803492 
L 572.814 302.604779 
L 574.9599 303.035868 
L 579.2517 302.769127 
L 581.3976 305.31121 
L 583.5435 304.282678 
L 585.6894 302.905728 
L 587.8353 306.549024 
L 589.9812 304.976459 
L 592.1271 305.171823 
L 594.273 305.604732 
L 596.4189 307.054628 
L 598.5648 304.765423 
L 600.7107 305.300424 
L 602.8566 304.561556 
L 605.0025 305.027469 
L 607.1484 306.462386 
L 609.2943 305.338553 
L 611.4402 306.446575 
L 613.5861 302.954732 
L 615.732 305.486598 
L 617.8779 306.004653 
L 620.0238 306.171352 
L 622.1697 305.926278 
L 624.3156 305.434898 
L 626.4615 307.93679 
L 628.6074 302.76746 
L 630.7533 307.024079 
L 632.8992 306.909882 
L 635.0451 306.348008 
L 637.191 306.513142 
L 639.3369 306.105935 
L 641.4828 304.345992 
L 643.6287 307.754643 
L 645.7746 306.809972 
L 647.9205 306.966084 
L 650.0664 306.163581 
L 652.2123 305.823445 
L 654.3582 305.252938 
L 656.5041 307.322056 
L 658.65 307.653436 
L 660.7959 310.197849 
L 662.9418 310.370553 
L 665.0877 310.382974 
L 667.2336 310.519186 
L 671.5254 310.555681 
L 673.6713 310.320882 
L 675.8172 310.861316 
L 680.109 311.493153 
L 682.2549 310.877194 
L 684.4008 310.66414 
L 686.5467 310.910429 
L 688.6926 311.35358 
L 690.8385 311.034345 
L 692.9844 311.23465 
L 695.1303 311.031895 
L 703.7139 311.161279 
L 705.8598 311.526235 
L 708.0057 311.340107 
L 710.1516 311.287606 
L 712.2975 310.854637 
L 714.4434 311.260453 
L 716.5893 311.401504 
L 718.7352 311.300183 
L 720.8811 311.53774 
L 725.1729 310.972226 
L 727.3188 311.603069 
L 731.6106 311.23724 
L 733.7565 311.621391 
L 735.9024 311.342288 
L 738.0483 311.566696 
L 740.1942 311.203869 
L 742.3401 311.63925 
L 744.486 311.280718 
L 746.6319 311.617339 
L 748.7778 311.576242 
L 750.9237 310.61382 
L 753.0696 311.738992 
L 755.2155 311.37042 
L 757.3614 311.141611 
L 759.5073 311.553912 
L 761.6532 311.430795 
L 763.7991 311.701829 
L 765.945 311.569088 
L 765.945 311.569088 
" clip-path="url(#pf27e870a14)" style="fill: none; stroke: #2196f3; stroke-width: 1.5; stroke-linecap: square"/>
   </g>
   <g id="line2d_60">
    <path d="M 446.2059 197.113607 
L 448.3518 198.120322 
L 450.4977 200.314253 
L 452.6436 226.688108 
L 454.7895 231.361613 
L 456.9354 265.473955 
L 459.0813 273.284903 
L 461.2272 278.504634 
L 463.3731 280.067758 
L 465.519 285.734952 
L 467.6649 283.558678 
L 469.8108 287.188199 
L 471.9567 285.684544 
L 474.1026 289.520339 
L 476.2485 289.802345 
L 480.5403 291.302736 
L 482.6862 292.498465 
L 484.8321 292.086175 
L 486.978 293.057237 
L 489.1239 293.796691 
L 491.2698 293.398487 
L 493.4157 295.414449 
L 495.5616 297.075149 
L 497.7075 297.717273 
L 499.8534 298.112151 
L 501.9993 299.433506 
L 504.1452 300.139137 
L 506.2911 299.820495 
L 508.437 300.705296 
L 510.5829 302.162349 
L 512.7288 300.279558 
L 514.8747 301.175095 
L 517.0206 299.575124 
L 519.1665 301.123851 
L 521.3124 303.948345 
L 523.4583 303.225305 
L 525.6042 303.027323 
L 527.7501 301.114847 
L 529.896 305.478173 
L 532.0419 304.826789 
L 534.1878 303.610924 
L 536.3337 304.352184 
L 538.4796 303.891395 
L 540.6255 305.328067 
L 542.7714 304.294453 
L 544.9173 303.475633 
L 547.0632 306.49562 
L 549.2091 304.886715 
L 551.355 305.039362 
L 553.5009 303.991391 
L 555.6468 306.568065 
L 559.9386 306.266975 
L 562.0845 306.250701 
L 564.2304 305.518738 
L 566.3763 304.617625 
L 568.5222 305.717095 
L 570.6681 306.301405 
L 572.814 304.045909 
L 574.9599 307.234989 
L 577.1058 307.148412 
L 579.2517 306.604509 
L 581.3976 307.476938 
L 583.5435 306.723877 
L 585.6894 306.715024 
L 587.8353 308.045233 
L 589.9812 307.123255 
L 592.1271 307.093217 
L 596.4189 306.46836 
L 598.5648 306.541424 
L 600.7107 308.282857 
L 602.8566 306.821951 
L 605.0025 308.618776 
L 607.1484 308.884246 
L 611.4402 307.854872 
L 617.8779 307.806596 
L 620.0238 309.136613 
L 622.1697 308.538802 
L 624.3156 308.239034 
L 626.4615 308.448049 
L 628.6074 304.651771 
L 630.7533 305.670487 
L 635.0451 308.635186 
L 637.191 307.384063 
L 639.3369 309.231172 
L 641.4828 309.019134 
L 643.6287 308.466859 
L 645.7746 308.634193 
L 647.9205 308.470199 
L 650.0664 306.955478 
L 654.3582 309.367617 
L 656.5041 308.573146 
L 658.65 308.557784 
L 660.7959 311.326481 
L 662.9418 311.642808 
L 665.0877 311.838824 
L 669.3795 311.15965 
L 671.5254 311.762778 
L 673.6713 311.907977 
L 675.8172 311.602541 
L 677.9631 311.886739 
L 680.109 311.995211 
L 686.5467 311.935519 
L 688.6926 312.051779 
L 695.1303 311.862388 
L 697.2762 311.99812 
L 701.568 312.067116 
L 703.7139 312.155084 
L 705.8598 312.061531 
L 708.0057 312.204754 
L 710.1516 311.827745 
L 712.2975 312.038422 
L 714.4434 312.063559 
L 716.5893 311.968568 
L 718.7352 312.214029 
L 720.8811 312.08221 
L 725.1729 312.104435 
L 727.3188 311.936359 
L 729.4647 311.905552 
L 731.6106 312.083618 
L 733.7565 312.047796 
L 738.0483 312.201744 
L 742.3401 311.851111 
L 744.486 312.136155 
L 750.9237 311.975378 
L 753.0696 312.322839 
L 755.2155 312.298274 
L 757.3614 311.99553 
L 759.5073 312.268415 
L 765.945 311.996293 
L 765.945 311.996293 
" clip-path="url(#pf27e870a14)" style="fill: none; stroke: #f44336; stroke-width: 1.5; stroke-linecap: square"/>
   </g>
   <g id="LineCollection_4">
    <path d="M 444.06 294.464 
L 776.6745 294.464 
" clip-path="url(#pf27e870a14)" style="fill: none; stroke: #a9a9a9; stroke-width: 0.5"/>
    <path d="M 444.06 262.780444 
L 776.6745 262.780444 
" clip-path="url(#pf27e870a14)" style="fill: none; stroke: #a9a9a9; stroke-width: 0.5"/>
    <path d="M 444.06 231.096889 
L 776.6745 231.096889 
" clip-path="url(#pf27e870a14)" style="fill: none; stroke: #a9a9a9; stroke-width: 0.5"/>
    <path d="M 444.06 199.413333 
L 776.6745 199.413333 
" clip-path="url(#pf27e870a14)" style="fill: none; stroke: #a9a9a9; stroke-width: 0.5"/>
   </g>
   <g id="patch_21">
    <path d="M 444.06 318.226667 
L 444.06 199.413333 
" style="fill: none; stroke: #000000; stroke-width: 0.8; stroke-linejoin: miter; stroke-linecap: square"/>
   </g>
   <g id="patch_22">
    <path d="M 765.945 318.226667 
L 765.945 199.413333 
" style="fill: none; stroke: #000000; stroke-width: 0.8; stroke-linejoin: miter; stroke-linecap: square"/>
   </g>
   <g id="patch_23">
    <path d="M 444.06 318.226667 
L 765.945 318.226667 
" style="fill: none; stroke: #000000; stroke-width: 0.8; stroke-linejoin: miter; stroke-linecap: square"/>
   </g>
   <g id="patch_24">
    <path d="M 444.06 199.413333 
L 765.945 199.413333 
" style="fill: none; stroke: #000000; stroke-width: 0.8; stroke-linejoin: miter; stroke-linecap: square"/>
   </g>
   <g id="legend_4">
    <g id="patch_25">
     <path d="M 620.3025 259.183333 
L 754.745 259.183333 
Q 757.945 259.183333 757.945 255.983333 
L 757.945 210.613333 
Q 757.945 207.413333 754.745 207.413333 
L 620.3025 207.413333 
Q 617.1025 207.413333 617.1025 210.613333 
L 617.1025 255.983333 
Q 617.1025 259.183333 620.3025 259.183333 
z
" style="fill: #ffffff; opacity: 0.8; stroke: #cccccc; stroke-linejoin: miter"/>
    </g>
    <g id="line2d_61">
     <path d="M 623.5025 220.370833 
L 639.5025 220.370833 
L 655.5025 220.370833 
" style="fill: none; stroke: #2196f3; stroke-width: 1.5; stroke-linecap: square"/>
    </g>
    <g id="text_57">
     <text style="font: 16px 'sans-serif'; text-anchor: start" x="668.3025" y="225.970833" transform="rotate(-0, 668.3025, 225.970833)">Hungarian</text>
    </g>
    <g id="line2d_62">
     <path d="M 623.5025 243.855833 
L 639.5025 243.855833 
L 655.5025 243.855833 
" style="fill: none; stroke: #f44336; stroke-width: 1.5; stroke-linecap: square"/>
    </g>
    <g id="text_58">
     <text style="font: 16px 'sans-serif'; text-anchor: start" x="668.3025" y="249.455833" transform="rotate(-0, 668.3025, 249.455833)">OT</text>
    </g>
   </g>
  </g>
  <g id="axes_5">
   <g id="patch_26">
    <path d="M 63.74 477.88 
L 385.625 477.88 
L 385.625 359.066667 
L 63.74 359.066667 
z
" style="fill: #ffffff"/>
   </g>
   <g id="matplotlib.axis_9">
    <g id="xtick_29">
     <g id="line2d_63">
      <g>
       <use xlink:href="#m3ea674f7d6" x="63.74" y="477.88" style="stroke: #000000; stroke-width: 0.8"/>
      </g>
     </g>
     <g id="text_59">
      <text style="font: 16px 'sans-serif'; text-anchor: middle" x="63.74" y="497.0375" transform="rotate(-0, 63.74, 497.0375)">0</text>
     </g>
    </g>
    <g id="xtick_30">
     <g id="line2d_64">
      <g>
       <use xlink:href="#m3ea674f7d6" x="117.3875" y="477.88" style="stroke: #000000; stroke-width: 0.8"/>
      </g>
     </g>
     <g id="text_60">
      <text style="font: 16px 'sans-serif'; text-anchor: middle" x="117.3875" y="497.0375" transform="rotate(-0, 117.3875, 497.0375)">25</text>
     </g>
    </g>
    <g id="xtick_31">
     <g id="line2d_65">
      <g>
       <use xlink:href="#m3ea674f7d6" x="171.035" y="477.88" style="stroke: #000000; stroke-width: 0.8"/>
      </g>
     </g>
     <g id="text_61">
      <text style="font: 16px 'sans-serif'; text-anchor: middle" x="171.035" y="497.0375" transform="rotate(-0, 171.035, 497.0375)">50</text>
     </g>
    </g>
    <g id="xtick_32">
     <g id="line2d_66">
      <g>
       <use xlink:href="#m3ea674f7d6" x="224.6825" y="477.88" style="stroke: #000000; stroke-width: 0.8"/>
      </g>
     </g>
     <g id="text_62">
      <text style="font: 16px 'sans-serif'; text-anchor: middle" x="224.6825" y="497.0375" transform="rotate(-0, 224.6825, 497.0375)">75</text>
     </g>
    </g>
    <g id="xtick_33">
     <g id="line2d_67">
      <g>
       <use xlink:href="#m3ea674f7d6" x="278.33" y="477.88" style="stroke: #000000; stroke-width: 0.8"/>
      </g>
     </g>
     <g id="text_63">
      <text style="font: 16px 'sans-serif'; text-anchor: middle" x="278.33" y="497.0375" transform="rotate(-0, 278.33, 497.0375)">100</text>
     </g>
    </g>
    <g id="xtick_34">
     <g id="line2d_68">
      <g>
       <use xlink:href="#m3ea674f7d6" x="331.9775" y="477.88" style="stroke: #000000; stroke-width: 0.8"/>
      </g>
     </g>
     <g id="text_64">
      <text style="font: 16px 'sans-serif'; text-anchor: middle" x="331.9775" y="497.0375" transform="rotate(-0, 331.9775, 497.0375)">125</text>
     </g>
    </g>
    <g id="xtick_35">
     <g id="line2d_69">
      <g>
       <use xlink:href="#m3ea674f7d6" x="385.625" y="477.88" style="stroke: #000000; stroke-width: 0.8"/>
      </g>
     </g>
     <g id="text_65">
      <text style="font: 16px 'sans-serif'; text-anchor: middle" x="385.625" y="497.0375" transform="rotate(-0, 385.625, 497.0375)">150</text>
     </g>
    </g>
    <g id="text_66">
     <text style="font: 16px 'sans-serif'; text-anchor: middle" x="224.6825" y="516.5225" transform="rotate(-0, 224.6825, 516.5225)">Epoch</text>
    </g>
   </g>
   <g id="matplotlib.axis_10">
    <g id="ytick_19">
     <g id="line2d_70">
      <g>
       <use xlink:href="#m53b14e7303" x="63.74" y="456.057143" style="stroke: #000000; stroke-width: 0.8"/>
      </g>
     </g>
     <g id="text_67">
      <text style="font: 16px 'sans-serif'; text-anchor: end" x="56.74" y="462.135893" transform="rotate(-0, 56.74, 462.135893)">0.1</text>
     </g>
    </g>
    <g id="ytick_20">
     <g id="line2d_71">
      <g>
       <use xlink:href="#m53b14e7303" x="63.74" y="431.809524" style="stroke: #000000; stroke-width: 0.8"/>
      </g>
     </g>
     <g id="text_68">
      <text style="font: 16px 'sans-serif'; text-anchor: end" x="56.74" y="437.888274" transform="rotate(-0, 56.74, 437.888274)">0.2</text>
     </g>
    </g>
    <g id="ytick_21">
     <g id="line2d_72">
      <g>
       <use xlink:href="#m53b14e7303" x="63.74" y="407.561905" style="stroke: #000000; stroke-width: 0.8"/>
      </g>
     </g>
     <g id="text_69">
      <text style="font: 16px 'sans-serif'; text-anchor: end" x="56.74" y="413.640655" transform="rotate(-0, 56.74, 413.640655)">0.3</text>
     </g>
    </g>
    <g id="ytick_22">
     <g id="line2d_73">
      <g>
       <use xlink:href="#m53b14e7303" x="63.74" y="383.314286" style="stroke: #000000; stroke-width: 0.8"/>
      </g>
     </g>
     <g id="text_70">
      <text style="font: 16px 'sans-serif'; text-anchor: end" x="56.74" y="389.393036" transform="rotate(-0, 56.74, 389.393036)">0.4</text>
     </g>
    </g>
    <g id="ytick_23">
     <g id="line2d_74">
      <g>
       <use xlink:href="#m53b14e7303" x="63.74" y="359.066667" style="stroke: #000000; stroke-width: 0.8"/>
      </g>
     </g>
     <g id="text_71">
      <text style="font: 16px 'sans-serif'; text-anchor: end" x="56.74" y="365.145417" transform="rotate(-0, 56.74, 365.145417)">0.5</text>
     </g>
    </g>
    <g id="text_72">
     <text style="font: 16px 'sans-serif'; text-anchor: middle" x="23.9675" y="418.473333" transform="rotate(-90, 23.9675, 418.473333)">L1 loss</text>
    </g>
   </g>
   <g id="line2d_75">
    <path d="M 65.8859 422.279148 
L 68.0318 441.889766 
L 70.1777 442.515767 
L 74.4695 444.11605 
L 76.6154 445.167228 
L 78.7613 446.428841 
L 80.9072 447.897518 
L 85.199 452.566458 
L 87.3449 454.476121 
L 89.4908 456.636701 
L 91.6367 458.141183 
L 93.7826 459.782006 
L 95.9285 460.735529 
L 100.2203 462.297637 
L 104.5121 464.957768 
L 106.658 465.385161 
L 108.8039 466.141187 
L 110.9498 466.318464 
L 113.0957 466.018639 
L 115.2416 463.772438 
L 117.3875 463.864439 
L 119.5334 463.395125 
L 121.6793 463.507412 
L 123.8252 463.261215 
L 125.9711 463.233529 
L 134.5547 463.724295 
L 136.7006 463.986371 
L 138.8465 464.134437 
L 140.9924 464.510576 
L 143.1383 464.612834 
L 145.2842 464.848424 
L 147.4301 464.676329 
L 149.576 464.899853 
L 153.8678 465.086274 
L 171.035 466.876775 
L 173.1809 466.989614 
L 175.3268 467.302998 
L 181.7645 467.724521 
L 188.2022 468.050724 
L 192.494 468.132622 
L 201.0776 468.636037 
L 205.3694 468.719694 
L 207.5153 468.894203 
L 211.8071 468.772398 
L 213.953 468.960771 
L 216.0989 468.955223 
L 218.2448 469.223393 
L 224.6825 469.153143 
L 226.8284 469.480084 
L 228.9743 469.421332 
L 231.1202 469.633839 
L 233.2661 469.485497 
L 235.412 469.651631 
L 241.8497 469.716653 
L 269.7464 470.16833 
L 271.8923 470.167242 
L 274.0382 470.319919 
L 278.33 470.448186 
L 280.4759 471.202421 
L 284.7677 471.567339 
L 291.2054 471.638985 
L 306.2267 471.821255 
L 308.3726 471.765908 
L 310.5185 471.828558 
L 312.6644 471.752663 
L 316.9562 471.861124 
L 325.5398 471.860152 
L 329.8316 471.910209 
L 357.7283 472.013345 
L 366.3119 472.094074 
L 368.4578 471.984103 
L 385.625 472.113117 
L 385.625 472.113117 
" clip-path="url(#p631df63a42)" style="fill: none; stroke: #2196f3; stroke-width: 1.5; stroke-linecap: square"/>
   </g>
   <g id="line2d_76">
    <path d="M 65.8859 403.143789 
L 68.0318 439.739167 
L 70.1777 440.662511 
L 72.3236 441.978871 
L 76.6154 443.971931 
L 78.7613 445.087196 
L 80.9072 448.047313 
L 83.0531 451.867865 
L 87.3449 456.241223 
L 89.4908 457.635624 
L 91.6367 457.97274 
L 93.7826 458.756787 
L 95.9285 459.151841 
L 102.3662 460.650245 
L 104.5121 461.060155 
L 106.658 461.281789 
L 108.8039 461.660242 
L 110.9498 462.213795 
L 113.0957 462.951279 
L 115.2416 463.824047 
L 117.3875 464.343029 
L 121.6793 465.190202 
L 123.8252 465.371288 
L 125.9711 465.744919 
L 128.117 465.913984 
L 130.2629 466.338627 
L 132.4088 466.387069 
L 136.7006 466.928936 
L 145.2842 467.571235 
L 147.4301 467.567546 
L 153.8678 468.055828 
L 162.4514 468.437218 
L 177.4727 469.154842 
L 179.6186 469.050755 
L 181.7645 469.26923 
L 186.0563 469.425655 
L 190.3481 469.419189 
L 198.9317 469.66705 
L 201.0776 469.614283 
L 211.8071 469.935827 
L 216.0989 470.013429 
L 218.2448 470.17348 
L 220.3907 470.129164 
L 222.5366 470.21493 
L 224.6825 470.098565 
L 226.8284 470.280548 
L 261.1628 470.813951 
L 265.4546 470.944632 
L 267.6005 470.946255 
L 271.8923 470.76264 
L 274.0382 470.963872 
L 278.33 471.060768 
L 280.4759 471.759252 
L 284.7677 471.973596 
L 310.5185 472.19759 
L 312.6644 472.072016 
L 316.9562 472.133174 
L 385.625 472.393197 
L 385.625 472.393197 
" clip-path="url(#p631df63a42)" style="fill: none; stroke: #f44336; stroke-width: 1.5; stroke-linecap: square"/>
   </g>
   <g id="LineCollection_5">
    <path d="M 63.74 456.057143 
L 396.3545 456.057143 
" clip-path="url(#p631df63a42)" style="fill: none; stroke: #a9a9a9; stroke-width: 0.5"/>
    <path d="M 63.74 431.809524 
L 396.3545 431.809524 
" clip-path="url(#p631df63a42)" style="fill: none; stroke: #a9a9a9; stroke-width: 0.5"/>
    <path d="M 63.74 407.561905 
L 396.3545 407.561905 
" clip-path="url(#p631df63a42)" style="fill: none; stroke: #a9a9a9; stroke-width: 0.5"/>
    <path d="M 63.74 383.314286 
L 396.3545 383.314286 
" clip-path="url(#p631df63a42)" style="fill: none; stroke: #a9a9a9; stroke-width: 0.5"/>
    <path d="M 63.74 359.066667 
L 396.3545 359.066667 
" clip-path="url(#p631df63a42)" style="fill: none; stroke: #a9a9a9; stroke-width: 0.5"/>
   </g>
   <g id="patch_27">
    <path d="M 63.74 477.88 
L 63.74 359.066667 
" style="fill: none; stroke: #000000; stroke-width: 0.8; stroke-linejoin: miter; stroke-linecap: square"/>
   </g>
   <g id="patch_28">
    <path d="M 385.625 477.88 
L 385.625 359.066667 
" style="fill: none; stroke: #000000; stroke-width: 0.8; stroke-linejoin: miter; stroke-linecap: square"/>
   </g>
   <g id="patch_29">
    <path d="M 63.74 477.88 
L 385.625 477.88 
" style="fill: none; stroke: #000000; stroke-width: 0.8; stroke-linejoin: miter; stroke-linecap: square"/>
   </g>
   <g id="patch_30">
    <path d="M 63.74 359.066667 
L 385.625 359.066667 
" style="fill: none; stroke: #000000; stroke-width: 0.8; stroke-linejoin: miter; stroke-linecap: square"/>
   </g>
   <g id="legend_5">
    <g id="patch_31">
     <path d="M 239.9825 418.836667 
L 374.425 418.836667 
Q 377.625 418.836667 377.625 415.636667 
L 377.625 370.266667 
Q 377.625 367.066667 374.425 367.066667 
L 239.9825 367.066667 
Q 236.7825 367.066667 236.7825 370.266667 
L 236.7825 415.636667 
Q 236.7825 418.836667 239.9825 418.836667 
z
" style="fill: #ffffff; opacity: 0.8; stroke: #cccccc; stroke-linejoin: miter"/>
    </g>
    <g id="line2d_77">
     <path d="M 243.1825 380.024167 
L 259.1825 380.024167 
L 275.1825 380.024167 
" style="fill: none; stroke: #2196f3; stroke-width: 1.5; stroke-linecap: square"/>
    </g>
    <g id="text_73">
     <text style="font: 16px 'sans-serif'; text-anchor: start" x="287.9825" y="385.624167" transform="rotate(-0, 287.9825, 385.624167)">Hungarian</text>
    </g>
    <g id="line2d_78">
     <path d="M 243.1825 403.509167 
L 259.1825 403.509167 
L 275.1825 403.509167 
" style="fill: none; stroke: #f44336; stroke-width: 1.5; stroke-linecap: square"/>
    </g>
    <g id="text_74">
     <text style="font: 16px 'sans-serif'; text-anchor: start" x="287.9825" y="409.109167" transform="rotate(-0, 287.9825, 409.109167)">OT</text>
    </g>
   </g>
  </g>
  <g id="axes_6">
   <g id="patch_32">
    <path d="M 444.06 477.88 
L 765.945 477.88 
L 765.945 359.066667 
L 444.06 359.066667 
z
" style="fill: #ffffff"/>
   </g>
   <g id="matplotlib.axis_11">
    <g id="xtick_36">
     <g id="line2d_79">
      <g>
       <use xlink:href="#m3ea674f7d6" x="444.06" y="477.88" style="stroke: #000000; stroke-width: 0.8"/>
      </g>
     </g>
     <g id="text_75">
      <text style="font: 16px 'sans-serif'; text-anchor: middle" x="444.06" y="497.0375" transform="rotate(-0, 444.06, 497.0375)">0</text>
     </g>
    </g>
    <g id="xtick_37">
     <g id="line2d_80">
      <g>
       <use xlink:href="#m3ea674f7d6" x="497.7075" y="477.88" style="stroke: #000000; stroke-width: 0.8"/>
      </g>
     </g>
     <g id="text_76">
      <text style="font: 16px 'sans-serif'; text-anchor: middle" x="497.7075" y="497.0375" transform="rotate(-0, 497.7075, 497.0375)">25</text>
     </g>
    </g>
    <g id="xtick_38">
     <g id="line2d_81">
      <g>
       <use xlink:href="#m3ea674f7d6" x="551.355" y="477.88" style="stroke: #000000; stroke-width: 0.8"/>
      </g>
     </g>
     <g id="text_77">
      <text style="font: 16px 'sans-serif'; text-anchor: middle" x="551.355" y="497.0375" transform="rotate(-0, 551.355, 497.0375)">50</text>
     </g>
    </g>
    <g id="xtick_39">
     <g id="line2d_82">
      <g>
       <use xlink:href="#m3ea674f7d6" x="605.0025" y="477.88" style="stroke: #000000; stroke-width: 0.8"/>
      </g>
     </g>
     <g id="text_78">
      <text style="font: 16px 'sans-serif'; text-anchor: middle" x="605.0025" y="497.0375" transform="rotate(-0, 605.0025, 497.0375)">75</text>
     </g>
    </g>
    <g id="xtick_40">
     <g id="line2d_83">
      <g>
       <use xlink:href="#m3ea674f7d6" x="658.65" y="477.88" style="stroke: #000000; stroke-width: 0.8"/>
      </g>
     </g>
     <g id="text_79">
      <text style="font: 16px 'sans-serif'; text-anchor: middle" x="658.65" y="497.0375" transform="rotate(-0, 658.65, 497.0375)">100</text>
     </g>
    </g>
    <g id="xtick_41">
     <g id="line2d_84">
      <g>
       <use xlink:href="#m3ea674f7d6" x="712.2975" y="477.88" style="stroke: #000000; stroke-width: 0.8"/>
      </g>
     </g>
     <g id="text_80">
      <text style="font: 16px 'sans-serif'; text-anchor: middle" x="712.2975" y="497.0375" transform="rotate(-0, 712.2975, 497.0375)">125</text>
     </g>
    </g>
    <g id="xtick_42">
     <g id="line2d_85">
      <g>
       <use xlink:href="#m3ea674f7d6" x="765.945" y="477.88" style="stroke: #000000; stroke-width: 0.8"/>
      </g>
     </g>
     <g id="text_81">
      <text style="font: 16px 'sans-serif'; text-anchor: middle" x="765.945" y="497.0375" transform="rotate(-0, 765.945, 497.0375)">150</text>
     </g>
    </g>
    <g id="text_82">
     <text style="font: 16px 'sans-serif'; text-anchor: middle" x="605.0025" y="516.5225" transform="rotate(-0, 605.0025, 516.5225)">Epoch</text>
    </g>
   </g>
   <g id="matplotlib.axis_12">
    <g id="ytick_24">
     <g id="line2d_86">
      <g>
       <use xlink:href="#m53b14e7303" x="444.06" y="456.057143" style="stroke: #000000; stroke-width: 0.8"/>
      </g>
     </g>
     <g id="text_83">
      <text style="font: 16px 'sans-serif'; text-anchor: end" x="437.06" y="462.135893" transform="rotate(-0, 437.06, 462.135893)">0.1</text>
     </g>
    </g>
    <g id="ytick_25">
     <g id="line2d_87">
      <g>
       <use xlink:href="#m53b14e7303" x="444.06" y="431.809524" style="stroke: #000000; stroke-width: 0.8"/>
      </g>
     </g>
     <g id="text_84">
      <text style="font: 16px 'sans-serif'; text-anchor: end" x="437.06" y="437.888274" transform="rotate(-0, 437.06, 437.888274)">0.2</text>
     </g>
    </g>
    <g id="ytick_26">
     <g id="line2d_88">
      <g>
       <use xlink:href="#m53b14e7303" x="444.06" y="407.561905" style="stroke: #000000; stroke-width: 0.8"/>
      </g>
     </g>
     <g id="text_85">
      <text style="font: 16px 'sans-serif'; text-anchor: end" x="437.06" y="413.640655" transform="rotate(-0, 437.06, 413.640655)">0.3</text>
     </g>
    </g>
    <g id="ytick_27">
     <g id="line2d_89">
      <g>
       <use xlink:href="#m53b14e7303" x="444.06" y="383.314286" style="stroke: #000000; stroke-width: 0.8"/>
      </g>
     </g>
     <g id="text_86">
      <text style="font: 16px 'sans-serif'; text-anchor: end" x="437.06" y="389.393036" transform="rotate(-0, 437.06, 389.393036)">0.4</text>
     </g>
    </g>
    <g id="ytick_28">
     <g id="line2d_90">
      <g>
       <use xlink:href="#m53b14e7303" x="444.06" y="359.066667" style="stroke: #000000; stroke-width: 0.8"/>
      </g>
     </g>
     <g id="text_87">
      <text style="font: 16px 'sans-serif'; text-anchor: end" x="437.06" y="365.145417" transform="rotate(-0, 437.06, 365.145417)">0.5</text>
     </g>
    </g>
   </g>
   <g id="line2d_91">
    <path d="M 446.2059 354.884053 
L 448.3518 359.47471 
L 450.4977 359.730899 
L 452.6436 376.904053 
L 454.7895 428.815894 
L 456.9354 413.28185 
L 459.0813 437.942269 
L 461.2272 451.979064 
L 463.3731 454.707988 
L 465.519 456.287112 
L 467.6649 458.107055 
L 469.8108 460.884153 
L 471.9567 461.011691 
L 476.2485 464.603099 
L 478.3944 464.538557 
L 480.5403 463.617079 
L 482.6862 467.794357 
L 484.8321 466.188132 
L 486.978 468.858079 
L 491.2698 467.832986 
L 493.4157 466.985874 
L 495.5616 465.652839 
L 497.7075 466.051096 
L 499.8534 465.876107 
L 501.9993 465.880737 
L 504.1452 464.116595 
L 506.2911 465.729788 
L 510.5829 464.834996 
L 512.7288 465.825423 
L 514.8747 465.731917 
L 517.0206 465.914433 
L 523.4583 467.195105 
L 525.6042 467.767176 
L 527.7501 467.571065 
L 529.896 467.486893 
L 532.0419 467.525339 
L 534.1878 467.289811 
L 536.3337 467.889439 
L 538.4796 468.330998 
L 540.6255 468.301674 
L 542.7714 469.055018 
L 544.9173 468.899854 
L 547.0632 468.866025 
L 549.2091 469.109484 
L 551.355 469.616254 
L 553.5009 468.624996 
L 555.6468 469.98671 
L 557.7927 470.08076 
L 559.9386 470.020996 
L 562.0845 470.524814 
L 564.2304 470.474409 
L 566.3763 469.916484 
L 568.5222 469.708934 
L 570.6681 470.869009 
L 572.814 470.336181 
L 574.9599 470.265793 
L 577.1058 470.025672 
L 579.2517 470.47974 
L 581.3976 471.248438 
L 583.5435 470.558945 
L 585.6894 470.10767 
L 587.8353 471.495543 
L 589.9812 471.015999 
L 592.1271 471.180927 
L 594.273 471.232903 
L 596.4189 471.732936 
L 598.5648 471.255369 
L 600.7107 470.954244 
L 602.8566 470.828964 
L 605.0025 471.372179 
L 607.1484 471.659493 
L 609.2943 471.436025 
L 611.4402 471.684334 
L 613.5861 470.776031 
L 617.8779 471.630062 
L 622.1697 471.476837 
L 624.3156 471.28363 
L 626.4615 472.068706 
L 628.6074 470.339679 
L 630.7533 471.712188 
L 632.8992 471.918998 
L 635.0451 471.660677 
L 637.191 471.645597 
L 639.3369 471.790242 
L 641.4828 471.400294 
L 643.6287 472.216898 
L 645.7746 471.796282 
L 647.9205 471.738374 
L 650.0664 471.933735 
L 652.2123 471.767681 
L 654.3582 471.375733 
L 656.5041 472.119953 
L 658.65 472.247725 
L 660.7959 473.071483 
L 662.9418 473.159567 
L 665.0877 473.099638 
L 669.3795 473.152837 
L 671.5254 473.079718 
L 673.6713 473.130163 
L 677.9631 473.43189 
L 680.109 473.507989 
L 682.2549 473.301693 
L 684.4008 473.221789 
L 690.8385 473.428255 
L 692.9844 473.47609 
L 695.1303 473.387832 
L 697.2762 473.442072 
L 699.4221 473.342984 
L 705.8598 473.548261 
L 708.0057 473.443987 
L 710.1516 473.463744 
L 712.2975 473.304465 
L 714.4434 473.470324 
L 720.8811 473.528799 
L 725.1729 473.312173 
L 727.3188 473.600235 
L 731.6106 473.442474 
L 733.7565 473.57926 
L 735.9024 473.454278 
L 738.0483 473.549361 
L 740.1942 473.447727 
L 742.3401 473.585251 
L 744.486 473.488468 
L 746.6319 473.618279 
L 748.7778 473.548287 
L 750.9237 473.330691 
L 753.0696 473.669713 
L 757.3614 473.329347 
L 759.5073 473.587805 
L 761.6532 473.507535 
L 763.7991 473.62161 
L 765.945 473.605279 
L 765.945 473.605279 
" clip-path="url(#p6849e78223)" style="fill: none; stroke: #2196f3; stroke-width: 1.5; stroke-linecap: square"/>
   </g>
   <g id="line2d_92">
    <path d="M 446.2059 352.367649 
L 448.3518 346.269994 
L 450.4977 357.798008 
L 452.6436 395.425776 
L 454.7895 406.564535 
L 456.9354 442.399748 
L 459.0813 448.664527 
L 461.2272 453.754734 
L 463.3731 455.734143 
L 465.519 459.53926 
L 467.6649 458.498537 
L 469.8108 460.713443 
L 471.9567 459.584552 
L 474.1026 462.149528 
L 476.2485 461.995982 
L 480.5403 463.133444 
L 482.6862 463.728627 
L 484.8321 463.077072 
L 486.978 463.99722 
L 489.1239 464.019092 
L 493.4157 465.757399 
L 495.5616 466.397811 
L 497.7075 467.504649 
L 499.8534 467.465173 
L 501.9993 467.950868 
L 504.1452 468.607222 
L 506.2911 468.522425 
L 508.437 468.758761 
L 510.5829 469.358439 
L 512.7288 468.88567 
L 514.8747 469.076559 
L 517.0206 468.56486 
L 519.1665 468.734734 
L 521.3124 470.212895 
L 523.4583 469.900957 
L 525.6042 470.146388 
L 527.7501 469.474252 
L 529.896 470.778041 
L 532.0419 470.258439 
L 534.1878 470.267693 
L 536.3337 470.474337 
L 538.4796 470.459083 
L 540.6255 470.933029 
L 542.7714 470.820656 
L 544.9173 470.319161 
L 547.0632 471.310582 
L 549.2091 470.874223 
L 551.355 471.054589 
L 553.5009 470.141648 
L 555.6468 470.833985 
L 562.0845 471.49422 
L 564.2304 471.035451 
L 566.3763 471.217181 
L 568.5222 470.887298 
L 570.6681 470.979139 
L 572.814 470.913894 
L 574.9599 471.66002 
L 579.2517 471.54329 
L 581.3976 471.928171 
L 583.5435 471.363205 
L 587.8353 472.159491 
L 589.9812 471.699024 
L 596.4189 471.746085 
L 598.5648 471.838419 
L 600.7107 472.055238 
L 602.8566 471.112947 
L 605.0025 472.320067 
L 609.2943 472.358532 
L 611.4402 471.922524 
L 617.8779 472.279035 
L 620.0238 472.41211 
L 622.1697 472.174353 
L 624.3156 472.397155 
L 626.4615 472.371217 
L 628.6074 471.374221 
L 630.7533 471.814772 
L 635.0451 472.24668 
L 637.191 472.191357 
L 639.3369 472.580318 
L 647.9205 472.318901 
L 650.0664 471.81886 
L 652.2123 472.413309 
L 654.3582 472.668839 
L 656.5041 472.360098 
L 658.65 472.369256 
L 660.7959 473.358782 
L 665.0877 473.490405 
L 669.3795 473.367058 
L 673.6713 473.522917 
L 675.8172 473.458256 
L 680.109 473.537494 
L 686.5467 473.523753 
L 692.9844 473.559118 
L 701.568 473.56738 
L 708.0057 473.629078 
L 712.2975 473.520424 
L 723.027 473.579569 
L 738.0483 473.626723 
L 742.3401 473.517075 
L 744.486 473.618048 
L 750.9237 473.533497 
L 753.0696 473.666601 
L 765.945 473.59485 
L 765.945 473.59485 
" clip-path="url(#p6849e78223)" style="fill: none; stroke: #f44336; stroke-width: 1.5; stroke-linecap: square"/>
   </g>
   <g id="LineCollection_6">
    <path d="M 444.06 456.057143 
L 776.6745 456.057143 
" clip-path="url(#p6849e78223)" style="fill: none; stroke: #a9a9a9; stroke-width: 0.5"/>
    <path d="M 444.06 431.809524 
L 776.6745 431.809524 
" clip-path="url(#p6849e78223)" style="fill: none; stroke: #a9a9a9; stroke-width: 0.5"/>
    <path d="M 444.06 407.561905 
L 776.6745 407.561905 
" clip-path="url(#p6849e78223)" style="fill: none; stroke: #a9a9a9; stroke-width: 0.5"/>
    <path d="M 444.06 383.314286 
L 776.6745 383.314286 
" clip-path="url(#p6849e78223)" style="fill: none; stroke: #a9a9a9; stroke-width: 0.5"/>
    <path d="M 444.06 359.066667 
L 776.6745 359.066667 
" clip-path="url(#p6849e78223)" style="fill: none; stroke: #a9a9a9; stroke-width: 0.5"/>
   </g>
   <g id="patch_33">
    <path d="M 444.06 477.88 
L 444.06 359.066667 
" style="fill: none; stroke: #000000; stroke-width: 0.8; stroke-linejoin: miter; stroke-linecap: square"/>
   </g>
   <g id="patch_34">
    <path d="M 765.945 477.88 
L 765.945 359.066667 
" style="fill: none; stroke: #000000; stroke-width: 0.8; stroke-linejoin: miter; stroke-linecap: square"/>
   </g>
   <g id="patch_35">
    <path d="M 444.06 477.88 
L 765.945 477.88 
" style="fill: none; stroke: #000000; stroke-width: 0.8; stroke-linejoin: miter; stroke-linecap: square"/>
   </g>
   <g id="patch_36">
    <path d="M 444.06 359.066667 
L 765.945 359.066667 
" style="fill: none; stroke: #000000; stroke-width: 0.8; stroke-linejoin: miter; stroke-linecap: square"/>
   </g>
   <g id="legend_6">
    <g id="patch_37">
     <path d="M 620.3025 418.836667 
L 754.745 418.836667 
Q 757.945 418.836667 757.945 415.636667 
L 757.945 370.266667 
Q 757.945 367.066667 754.745 367.066667 
L 620.3025 367.066667 
Q 617.1025 367.066667 617.1025 370.266667 
L 617.1025 415.636667 
Q 617.1025 418.836667 620.3025 418.836667 
z
" style="fill: #ffffff; opacity: 0.8; stroke: #cccccc; stroke-linejoin: miter"/>
    </g>
    <g id="line2d_93">
     <path d="M 623.5025 380.024167 
L 639.5025 380.024167 
L 655.5025 380.024167 
" style="fill: none; stroke: #2196f3; stroke-width: 1.5; stroke-linecap: square"/>
    </g>
    <g id="text_88">
     <text style="font: 16px 'sans-serif'; text-anchor: start" x="668.3025" y="385.624167" transform="rotate(-0, 668.3025, 385.624167)">Hungarian</text>
    </g>
    <g id="line2d_94">
     <path d="M 623.5025 403.509167 
L 639.5025 403.509167 
L 655.5025 403.509167 
" style="fill: none; stroke: #f44336; stroke-width: 1.5; stroke-linecap: square"/>
    </g>
    <g id="text_89">
     <text style="font: 16px 'sans-serif'; text-anchor: start" x="668.3025" y="409.109167" transform="rotate(-0, 668.3025, 409.109167)">OT</text>
    </g>
   </g>
  </g>
 </g>
 <defs>
  <clipPath id="pfb779b0c3a">
   <rect x="63.74" y="39.76" width="321.885" height="118.813333"/>
  </clipPath>
  <clipPath id="p2a0f274b69">
   <rect x="444.06" y="39.76" width="321.885" height="118.813333"/>
  </clipPath>
  <clipPath id="p5ff3371e30">
   <rect x="63.74" y="199.413333" width="321.885" height="118.813333"/>
  </clipPath>
  <clipPath id="pf27e870a14">
   <rect x="444.06" y="199.413333" width="321.885" height="118.813333"/>
  </clipPath>
  <clipPath id="p631df63a42">
   <rect x="63.74" y="359.066667" width="321.885" height="118.813333"/>
  </clipPath>
  <clipPath id="p6849e78223">
   <rect x="444.06" y="359.066667" width="321.885" height="118.813333"/>
  </clipPath>
 </defs>
</svg>
